<svg xmlns="http://www.w3.org/2000/svg" width="67" height="67" viewBox="0 0 67 67">
    <g fill="#E2CB33" fill-rule="nonzero">
        <path d="M67 4.323V2.16C67 .97 66.03 0 64.839 0H2.16C.97 0 0 .97 0 2.161v2.162c0 1.192.97 2.16 2.161 2.16v32.42C.97 38.903 0 39.873 0 41.065v2.16c0 1.193.97 2.162 2.161 2.162v15.13C.97 60.516 0 61.484 0 62.676v2.162C0 66.03.97 67 2.161 67H64.84C66.03 67 67 66.03 67 64.839v-2.162c0-1.192-.97-2.16-2.161-2.16v-15.13c1.192 0 2.161-.97 2.161-2.161v-2.161c0-1.192-.97-2.162-2.161-2.162V6.483c1.192 0 2.161-.968 2.161-2.16zM2.161 2.16H64.84v2.162H2.162V2.16zm34.58 17.29V6.485h21.614v12.968H36.742zM30.259 6.485v12.968H8.645V6.484h21.613zm2.161 0h2.162v12.968h-2.162V6.484zm-25.935 0v12.968H4.323V6.484h2.16zM4.323 45.387h2.16v15.13h-2.16v-15.13zm10.806 0h8.645v2.161H15.13v-2.16zm10.806 4.323v-4.323h4.323v6.484H8.645v-6.484h4.323v4.323h12.967zm10.807 10.806V45.387h21.613v15.13H36.742zm-2.161 0h-2.162V45.387h2.162v15.13zM8.645 54.032h4.323v4.323h12.967v-4.323h4.323v6.484H8.645v-6.484zm6.484 0h8.645v2.162H15.13v-2.162zm49.71 10.807H2.162v-2.162H64.84v2.162zm-2.162-4.323h-2.16V45.387h2.16v15.13zm2.163-17.29H2.16v-2.161H64.84v2.16zm-6.485-4.323v-3.242h2.161V33.5h-6.484v2.161h2.162v3.242H51.87V28.097a4.327 4.327 0 0 0-4.323-4.323 4.327 4.327 0 0 0-4.322 4.323v1.08h2.161v-1.08c0-1.192.97-2.162 2.161-2.162 1.192 0 2.162.97 2.162 2.162v6.484h-2.162v2.16h2.162v2.162H4.323v-17.29h58.354v17.29h-4.322zm4.322-19.451h-2.16V6.484h2.16v12.968z"/>
        <path d="M54.032 49.71h2.162v6.484h-2.162zM38.903 10.806h2.162v4.323h-2.162zM25.935 10.806h2.162v4.323h-2.162z"/>
    </g>
</svg>
