<svg version="1.1" id="Layer_1" xmlns="http://www.w3.org/2000/svg" xmlns:xlink="http://www.w3.org/1999/xlink" x="0" y="0" viewBox="0 0 70 70" xml:space="preserve"><style>.st0{fill:#0079bb}</style><path class="st0" d="M66.2 22.4v43.4c0 .9-.8 1.8-1.8 1.8h-34c-.8 0-1.5-.6-1.5-1.4 0-.8.6-1.4 1.4-1.4h33.1V23.1L34 3.2 5.6 23.1v41.6h5c.8 0 1.4.6 1.4 1.4 0 .8-.6 1.5-1.4 1.5H4.4c-.8 0-1.4-.6-1.6-1.3V22.5c0-.5.2-.9.5-1.2l.1-.1L33.1.4c.5-.4 1.3-.4 1.8 0l30.6 20.7c.4.3.7.8.7 1.3z"/><path class="st0" d="M52.5 61.2H9.8v-7.8h47.4c.8 0 1.4.6 1.4 1.4 0 .8-.6 1.4-1.4 1.4H12.6v2.2h40c.8 0 1.4.6 1.4 1.4s-.8 1.4-1.5 1.4z"/><defs><path id="SVGID_1_" d="M-390.6-14.4h29.8v44.2h-29.8z"/></defs><clipPath id="SVGID_2_"><use xlink:href="#SVGID_1_" overflow="visible"/></clipPath><g clip-path="url(#SVGID_2_)"><defs><path id="SVGID_3_" d="M-697-449.1H743v1024H-697z"/></defs><clipPath id="SVGID_4_"><use xlink:href="#SVGID_3_" overflow="visible"/></clipPath><g clip-path="url(#SVGID_4_)"><defs><path id="SVGID_5_" d="M-391-15.1h31v45h-31z"/></defs><clipPath id="SVGID_6_"><use xlink:href="#SVGID_5_" overflow="visible"/></clipPath><g clip-path="url(#SVGID_6_)"><defs><path id="SVGID_7_" d="M-366.4 2.6h-8.1c-1.9 0-.3-1.7.1-3.6 1.1-4.8 2.1-13.4-4.1-13.3-1.6-.3-3.2.9-3.5 2.5-1.6 10.4-8.6 16-8.6 17.5v20.9c0 1.6 1.5 3.2 3.1 3.2h21.1c3.3 0 5.6-2.9 5.6-6.2V8.7c-.1-3.3-2.3-6.1-5.6-6.1"/></defs><clipPath id="SVGID_8_"><use xlink:href="#SVGID_7_" overflow="visible"/></clipPath><g clip-path="url(#SVGID_8_)"><defs><path id="SVGID_9_" d="M-391-15.1h31v45h-31z"/></defs><clipPath id="SVGID_10_"><use xlink:href="#SVGID_9_" overflow="visible"/></clipPath><path d="M-395.6-19.4h39.8v54.2h-39.8v-54.2z" opacity=".9" clip-path="url(#SVGID_10_)" fill="#0079bb"/></g></g></g></g><path class="st0" d="M35.1 49.7H12.2c-1.5 0-2.7-1.2-2.7-2.7V33.3c0-1.5 1.2-2.7 2.7-2.7h22.9c1.5 0 2.7 1.2 2.7 2.7v13.6c.1 1.6-1.2 2.8-2.7 2.8zm-22.6-3h22.4V33.6H12.5v13.1z"/><path class="st0" d="M23.7 55.5c-.8 0-1.5-.7-1.5-1.5V42.2c0-.8.7-1.5 1.5-1.5s1.5.7 1.5 1.5V54c0 .8-.7 1.5-1.5 1.5zM47.5 36.1c-4.4 0-8-3.6-8-8s3.6-8 8-8 8 3.6 8 8-3.6 8-8 8zm0-12.9c-2.7 0-5 2.2-5 5 0 2.7 2.2 5 5 5s5-2.2 5-5c-.1-2.8-2.3-5-5-5zM41.9 52.2c-.8 0-1.5-.7-1.5-1.5v-5.5c0-4.1 3.3-7.4 7.4-7.4 4.1 0 7.4 3.3 7.4 7.4v4.3c0 .8-.7 1.5-1.5 1.5s-1.5-.7-1.5-1.5v-4.3c0-2.5-2-4.4-4.4-4.4-2.5 0-4.4 2-4.4 4.4v5.5c0 .8-.7 1.5-1.5 1.5z"/></svg>