<svg xmlns="http://www.w3.org/2000/svg" width="67" height="67" viewBox="0 0 67 67">
    <g fill="#4C983B" fill-rule="nonzero">
        <path d="M49.081 18.573a1.318 1.318 0 0 0-.925-.383c-.344 0-.682.14-.925.383s-.383.58-.383.925c0 .344.14.682.383.925.244.244.581.384.925.384.344 0 .682-.14.925-.384.244-.243.384-.58.384-.925 0-.344-.14-.682-.384-.925zM19.629 36.902H9.16c-.722 0-1.308.586-1.308 1.31V48.68c0 .723.586 1.308 1.308 1.308H19.63c.723 0 1.308-.585 1.308-1.308V38.21c0-.723-.585-1.309-1.308-1.309zm-1.309 10.47H10.47V39.52h7.851v7.851zM66.192 27.45a1.309 1.309 0 0 0-1.426.283L51.432 41.067l-.001.002-15.544 15.544h-.001l-8.153 8.153A1.31 1.31 0 0 0 28.658 67h37.033c.723 0 1.309-.586 1.309-1.308V28.658c0-.529-.319-1.006-.808-1.209zm-1.81 36.933H31.819l4.993-4.994 1.25 1.25a1.304 1.304 0 0 0 1.85 0 1.309 1.309 0 0 0 0-1.851l-1.25-1.25 3.332-3.33 1.25 1.248a1.304 1.304 0 0 0 1.85 0 1.309 1.309 0 0 0 0-1.85l-1.25-1.25 3.332-3.33 1.249 1.249a1.304 1.304 0 0 0 1.85 0 1.309 1.309 0 0 0 0-1.851l-1.249-1.25 3.331-3.33 1.25 1.249a1.304 1.304 0 0 0 1.85 0 1.309 1.309 0 0 0 0-1.85l-1.25-1.25 3.332-3.331 1.25 1.249a1.304 1.304 0 0 0 1.85 0 1.309 1.309 0 0 0 0-1.85l-1.25-1.25 4.995-4.993v32.565z"/>
        <path d="M59.65 43.245a1.308 1.308 0 0 0-1.427.284L43.53 58.223a1.309 1.309 0 0 0 .925 2.234h14.694c.723 0 1.309-.586 1.309-1.308V44.455c0-.53-.319-1.007-.808-1.21zM57.84 57.84H47.614L57.84 47.614V57.84zM60.596 19.532a1.309 1.309 0 0 0-1.376-.303L50.285 22.5a1.31 1.31 0 0 0-.475.303l-2.513 2.513L30.892 8.91a1.309 1.309 0 0 0-1.85 0L9.293 28.658H4.468L29.967 3.16l13.992 13.993a1.309 1.309 0 0 0 1.851-1.85L30.892.382a1.309 1.309 0 0 0-1.85 0L.382 29.041a1.309 1.309 0 0 0 .926 2.235h1.308v34.416c0 .722.586 1.308 1.309 1.308H24.73a1.309 1.309 0 0 0 0-2.617H5.234V31.276h4.602c.347 0 .68-.138.926-.384l19.205-19.205 15.48 15.48L26.04 46.573V34.809h9.16a1.309 1.309 0 0 0 0-2.617H24.732c-.722 0-1.308.585-1.308 1.308v15.18c0 .153.027.298.075.435l-1.172 1.172a5.319 5.319 0 0 0 0 7.514 5.295 5.295 0 0 0 3.757 1.553c1.36 0 2.721-.518 3.757-1.553l11.035-11.036a1.309 1.309 0 0 0-1.85-1.85l-8.361 8.36-3.813-3.812 23.91-23.909 3.812 3.812-9.136 9.136a1.309 1.309 0 0 0 1.85 1.851l10.035-10.035a1.31 1.31 0 0 0 .304-.475l3.272-8.935a1.309 1.309 0 0 0-.303-1.376zM28.814 55.126l-.824.824c-.51.51-1.186.79-1.906.79s-1.397-.28-1.906-.79a2.677 2.677 0 0 1-.79-1.906c0-.72.28-1.397.79-1.906l.824-.825 3.812 3.813zm27.074-28.147l-2.74-2.74 4.324-1.583-1.584 4.323z"/>
        <path d="M44.059 41.731a1.318 1.318 0 0 0-.925-.383c-.344 0-.682.14-.925.383a1.32 1.32 0 0 0-.384.925c0 .346.14.682.384.927a1.315 1.315 0 0 0 1.85 0c.243-.245.383-.582.383-.927 0-.344-.14-.68-.383-.925zM29.967 19.76a4.978 4.978 0 0 0-4.973 4.973 4.978 4.978 0 0 0 4.973 4.972 4.978 4.978 0 0 0 4.972-4.972 4.978 4.978 0 0 0-4.972-4.973zm0 7.328a2.358 2.358 0 0 1-2.356-2.355 2.358 2.358 0 0 1 2.356-2.356 2.358 2.358 0 0 1 2.355 2.356 2.358 2.358 0 0 1-2.355 2.355z"/>
    </g>
</svg>
