<svg xmlns="http://www.w3.org/2000/svg" width="67" height="67" viewBox="0 0 67 67">
    <g fill="#D37F04" fill-rule="nonzero">
        <path d="M67 4.323V2.16C67 .97 66.03 0 64.839 0H2.16C.97 0 0 .97 0 2.161v2.162c0 1.192.97 2.16 2.161 2.16v54.232A3.238 3.238 0 0 0 0 63.758V67h67v-3.242a3.238 3.238 0 0 0-2.161-3.043V6.484c1.192 0 2.161-.97 2.161-2.161zM2.161 2.16H64.84l.002 2.162H2.16V2.16zm25.936 4.323v54.032H4.323V6.484h23.774zm36.742 58.355H2.16v-1.08c0-.597.485-1.082 1.08-1.082h60.517c.596 0 1.08.485 1.08 1.081v1.08zm-2.162-54.033h-17.29a3.246 3.246 0 0 0-3.242 3.242v3.242h-1.08a3.246 3.246 0 0 0-3.242 3.242v3.242h10.806v-3.242a3.246 3.246 0 0 0-3.242-3.242h-1.08v-3.242c0-.596.484-1.08 1.08-1.08h17.29v14.048h-4.322v-2.161h-2.161v6.484h2.16v-2.162h4.323v31.34H30.258V6.483h32.42v4.322zm-17.29 8.646c.596 0 1.08.484 1.08 1.08v1.08h-6.483v-1.08c0-.596.484-1.08 1.08-1.08h4.323z"/>
        <path d="M25.935 38.903V28.097h-6.483v10.806h6.483zm-4.322-8.645h2.161v6.484h-2.161v-6.484zM42.145 25.935h2.161v4.323h-2.16zM42.145 32.42h2.161v4.322h-2.16zM42.145 38.903h2.161v4.323h-2.16zM38.413 30.154l.578-4.284 2.142.29-.579 4.283zM37.544 36.58l.579-4.285 2.142.289-.58 4.285zM36.674 43.004l.58-4.283 2.141.289-.578 4.283zM45.52 26.11l2.149-.24.478 4.296-2.148.24zM46.235 32.553l2.148-.238.477 4.295-2.148.238zM46.95 38.997l2.149-.238.476 4.296-2.148.238z"/>
    </g>
</svg>
