<svg width="633" height="419" xmlns="http://www.w3.org/2000/svg"><defs><filter x="-15.9%" y="-11.4%" width="131.8%" height="131.8%" filterUnits="objectBoundingBox" id="a"><feOffset dy="2" in="SourceAlpha" result="shadowOffsetOuter1"/><feGaussianBlur stdDeviation="2" in="shadowOffsetOuter1" result="shadowBlurOuter1"/><feColorMatrix values="0 0 0 0 0 0 0 0 0 0 0 0 0 0 0 0 0 0 0.5 0" in="shadowBlurOuter1" result="shadowMatrixOuter1"/><feMerge><feMergeNode in="shadowMatrixOuter1"/><feMergeNode in="SourceGraphic"/></feMerge></filter><filter x="-15.9%" y="-11.4%" width="131.8%" height="131.8%" filterUnits="objectBoundingBox" id="b"><feOffset dy="2" in="SourceAlpha" result="shadowOffsetOuter1"/><feGaussianBlur stdDeviation="2" in="shadowOffsetOuter1" result="shadowBlurOuter1"/><feColorMatrix values="0 0 0 0 0 0 0 0 0 0 0 0 0 0 0 0 0 0 0.5 0" in="shadowBlurOuter1" result="shadowMatrixOuter1"/><feMerge><feMergeNode in="shadowMatrixOuter1"/><feMergeNode in="SourceGraphic"/></feMerge></filter><filter x="-15.9%" y="-11.4%" width="131.8%" height="131.8%" filterUnits="objectBoundingBox" id="c"><feOffset dy="2" in="SourceAlpha" result="shadowOffsetOuter1"/><feGaussianBlur stdDeviation="2" in="shadowOffsetOuter1" result="shadowBlurOuter1"/><feColorMatrix values="0 0 0 0 0 0 0 0 0 0 0 0 0 0 0 0 0 0 0.5 0" in="shadowBlurOuter1" result="shadowMatrixOuter1"/><feMerge><feMergeNode in="shadowMatrixOuter1"/><feMergeNode in="SourceGraphic"/></feMerge></filter><filter x="-15.9%" y="-11.4%" width="131.8%" height="131.8%" filterUnits="objectBoundingBox" id="d"><feOffset dy="2" in="SourceAlpha" result="shadowOffsetOuter1"/><feGaussianBlur stdDeviation="2" in="shadowOffsetOuter1" result="shadowBlurOuter1"/><feColorMatrix values="0 0 0 0 0 0 0 0 0 0 0 0 0 0 0 0 0 0 0.5 0" in="shadowBlurOuter1" result="shadowMatrixOuter1"/><feMerge><feMergeNode in="shadowMatrixOuter1"/><feMergeNode in="SourceGraphic"/></feMerge></filter></defs><g fill="none" fill-rule="evenodd"><g fill="#A6A6A5"><path d="M97.6 297.369c-1.609-.388-3.219-.51-4.78-.628a54.11 54.11 0 01-2.238-.2c-6.696-.777-13.51-1.469-20.099-2.137l-2.37-.241c-.214-.022-.295-.03-.535-.506-1.023-2.03-2.056-4.056-3.09-6.08l-.037-.074c-1.853-3.63-3.77-7.382-5.592-11.116-1.118-2.292-2.557-4.297-3.95-6.236a96.488 96.488 0 01-1.725-2.46c-.547-.816-1.319-1.265-2.172-1.265-.1 0-.202.005-.306.019a7.35 7.35 0 01-.866.052c-3.168 0-5.151-2.214-7.607-5.341a8.05 8.05 0 00-.158-.195c-.1-.12-.189-.226-.226-.288-2.304-3.858-5.991-4.62-9.267-5.033a15.404 15.404 0 01-1.17-.21 36.967 36.967 0 00-.585-.118c-.729-.14-1.68-.448-2.075-1.129-.298-.515-.306-1.283-.022-2.282.79-2.775.623-5.33-.539-8.284-1.712-4.357-3.363-8.836-4.96-13.168l-.017-.047a1418.06 1418.06 0 00-2.236-6.041c-.485-1.3-.727-2.687-.984-4.155a47.49 47.49 0 00-.478-2.481l.035-.06c.059-.1.116-.198.167-.298.77-1.481 1.637-3.259 2.227-5.192.635-2.081.191-3.802-1.318-5.115-1.166-1.015-2.293-2.11-3.54-3.334-.649-.636-.585-1.003-.561-1.141.83-4.78-.816-8.825-2.408-12.737-1.404-3.452-2.982-6.866-4.508-10.167-.414-.897-.829-1.793-1.24-2.691-.569-1.242-.828-2.338-.818-3.452.009-.98.007-1.957.006-2.936v-.051c-.007-3.233-.013-6.575.39-9.825.36-2.894-.4-5.798-1.07-8.36-.121-.462-.24-.923-.358-1.385l-.01-.043c-.652-2.544-1.323-5.166-2.384-7.672v-.217l1.59-2.482c1.996-3.117 3.991-6.234 5.99-9.35.568-.885.539-1.818.53-2.125-.042-1.304-.02-2.65.002-3.95.03-1.822.061-3.685-.071-5.563l1.169.37c2.307.727 4.604 1.452 6.9 2.182 2.195.697 4.39 1.391 6.586 2.086l.472.149c6.002 1.897 12.209 3.86 18.323 5.858 1.349.441 2.722.862 4.05 1.27l.062.018c2.49.763 5.05 1.548 7.52 2.483l-.828 3.602c-.848 3.686-1.696 7.372-2.546 11.058l-.78 3.386c-2.117 9.18-4.234 18.358-6.364 27.534-.345 1.487-.13 2.754.655 3.873 4.262 6.073 8.52 12.149 12.78 18.225l.104.149c3.756 5.36 7.513 10.72 11.273 16.078 7.994 11.392 15.995 22.779 24 34.163a1263.75 1263.75 0 004.275 6.03l2.193 3.08.829 1.48c.66 1.18 1.32 2.36 1.984 3.54l.057.1c.205.363.4.707.37.896-.362 2.361.351 4.38 2.065 5.863-2.932 2.007-5.112 4.68-6.693 6.803-.383.513-1.548 2.077-.326 4.034l.052.086a3.277 3.277 0 01-.228.123c-3.048 1.502-3.392 2.131-3.067 5.617l.012.135c-.4 3.405.856 5.071 2.369 5.87-.455.404-.904.81-1.344 1.207l-.49.442zM606.817 70.739c-1.13-2.71-2.259-5.417-3.378-8.131a6371.38 6371.38 0 01-5.65-13.766l-2.593-6.327c-.183-2.346.496-4.586 1.214-6.956.253-.837.508-1.676.725-2.522.684-2.657.75-5.3.195-7.856-1.22-5.626-.238-11.133.754-15.3.507-2.131.972-4.404 1.383-6.763a5.1 5.1 0 001.74.32c2.327 0 3.76-1.795 4.91-3.239l.104-.13c1.098.562 2.228.879 3.324 1.185.538.15 1.09.305 1.604.482.86.296 1.26.65 1.64 1.46 1.476 3.14 3.045 6.399 4.43 9.274l.117.245c1.276 2.65 2.595 5.39 3.87 8.092.267.564.974 2.063 2.578 2.063.307 0 .617-.056.946-.169.394-.029.837-.058 1.196-.058.208 0 .46 0 .573.022.088.2.156.798.205 1.783.142 2.909 1.991 3.223 2.779 3.223.224 0 .457-.02.713-.062.12-.019.232-.029.33-.029.444 0 .653.122 1.43 1.572 1.533 2.86 1.227 4.904-1.127 7.545-1.943 2.179-3.637 4.612-5.275 6.964-.682.98-1.383 1.989-2.094 2.964a7.41 7.41 0 01-.204.268 8.344 8.344 0 01-.222-.267c-.307-.386-.54-.845-.838-1.426-.25-.49-.533-1.045-.91-1.633a1.377 1.377 0 00-1.154-.646c-.081 0-.164.008-.245.023-.534.099-.971.525-1.108 1.086-.22.91-.44 1.8-.659 2.68-.55 2.218-1.068 4.313-1.532 6.464-.18.836-.474 1.393-.983 1.865a6.21 6.21 0 00-.472.5c-.117.135-.237.274-.314.333-3.594 2.743-5.55 6.688-6.154 12.415a136.597 136.597 0 01-.681 5.25c-.38-.914-1.167-2.798-1.167-2.798M325.731 415.971c-2.066 0-4.271-.705-6.403-1.387-4.495-1.44-8.865-3.465-13.09-5.424l-.086-.04c-.67-.31-1.338-.62-2.008-.928-.19-.088-.243-.156-.302-.315-.813-2.18-1.866-4.18-3.132-5.944-1.406-1.96-2.09-4.114-2.033-6.402.108-4.293-1.775-7.547-3.632-10.164-5.13-7.233-9.945-14.449-13.977-20.554-1.255-1.9-2.892-3.5-5.153-5.03-1.149-.777-1.798-1.551-2.106-2.509-.444-1.38-1.41-2.119-2.873-2.194-1.869-.099-3.777-.267-5.623-.43l-1.632-.141c-.24-.021-.48-.037-.721-.053l-.06-.004c-1.305-.088-2.43-.163-3.361-.812-.311-.216-.791-.501-1.385-.501-.374 0-.735.116-1.043.336-.426.306-.91.572-1.424.853-1.255.686-2.666 1.457-3.613 3.046l-1.437 2.406c-1.682 2.813-3.42 5.721-5.1 8.64a.8.8 0 01-.01.015c-5.45-3.636-10.947-7.212-16.113-10.564-.486-.315-.492-.429-.501-.602-.024-.435-.1-.837-.166-1.193a6.858 6.858 0 01-.12-.775c-.2-3.075-1.458-5.605-2.675-8.052-.167-.337-.335-.675-.502-1.016-3-6.163-7.72-10.169-11.498-12.97-.89-.66-1.073-1.08-1.088-1.582-.053-1.785-1.07-2.754-1.951-3.399a397.76 397.76 0 01-5.58-4.185l-1.568-1.188a46.13 46.13 0 00-.001-.976l.162.003c.228.004.49.01.786.01l1.941-.003c5.918-.006 11.836-.012 17.754-.012 8.916 0 16.282.014 23.18.044.808 0 1.784-.096 2.485-.838.7-.74.791-1.762.79-2.664-.04-19.428-.037-39.71-.033-57.604l.002-10.775c0-.22.004-.441.01-.664l7.457-.003c8.968-.003 18.241-.005 27.361-.053.21 0 .349.013.437.027.014.107.028.286.025.576-.052 6.547-.045 13.201-.039 19.637v.098c.003 2.217.005 4.433.005 6.65v.104c-.002.735-.005 1.967 1.135 2.942 1.922 1.644 4.222 3.398 7.214 3.398.53 0 1.073-.057 1.615-.168.039 0 .074.003.11.005.097.006.193.011.287.011h.004c0 1.477 1.083 2.15 1.628 2.49 2.05 1.275 4.34 1.87 7.21 1.87.717 0 1.49-.038 2.364-.114.285-.025.56-.037.814-.037 1.758 0 2.91.557 3.847 1.862.87 1.21 2.085 1.85 3.514 1.85.385 0 .792-.047 1.21-.14a8.434 8.434 0 011.815-.176c.737 0 1.484.065 2.274.134l.314.027c.19.017.381.038.573.059.472.05.956.104 1.467.104.475 0 1.921 0 3.273-1.145.216-.184.44-.39.668-.603.37-.343 1.118-1.037 1.43-1.098.23.185.602 1.024.785 1.436.147.332.314.708.497 1.05.631 1.177 1.471 1.775 2.496 1.775.51 0 1.027-.146 1.68-.472 4.879-2.442 9.586-3.639 14.392-3.659.784 0 1.349.125 1.918.418.765.393 1.541.822 2.292 1.235 1.63.9 3.31 1.826 5.1 2.538.156.062.32.094.486.094.546.002 1.093.009 1.638.016.663.008 1.325.016 1.987.016.743 0 1.397-.01 1.998-.032-.046 1.867-.03 3.754-.015 5.579l.002.187c.006.701.012 1.403.013 2.104-.008.957-.003 1.932.002 2.907.01 2.162.022 4.377-.124 6.514-.264 3.864.736 6.73 3.244 9.289 3.486 3.557 4.947 7.671 4.344 12.228-.168 1.266-.22 2.534-.272 3.76l-.006.142c-.173 4.156-.338 8.313-.503 12.47l-.167 4.211c-2.443.822-4.34 1.625-6.092 2.576-2.416 1.31-4.385 2.943-6.02 4.99-2.509 3.142-5.815 5.553-9.013 7.885-.444.323-.886.646-1.327.971-2.082 1.533-4.446 3.052-7.44 4.778-7.235 4.172-12.457 10.887-15.521 19.957-.894 2.647-.931 5.437-.967 8.135-.012.853-.023 1.731-.063 2.571-.038.794.33 1.425.598 1.886.054.092.097.165.135.238l.91 1.716c1.315 2.485 2.674 5.051 4.05 7.564l-.001.001c-1.278.781-2.637 1.16-4.158 1.16"/><path d="M179.202 327.614c-.307 0-.675-.039-1.031-.075-.304-.032-.65-.068-.983-.081-1.655-.065-3.383-.166-4.908-.255l-.625-.036c.071-1.07.223-3.293.223-3.293.229-3.378.466-6.871.67-10.312.309-5.204.608-10.495.898-15.613.245-4.317.49-8.634.742-12.95.603-10.32 1.281-21.737 2.134-35.931.18-2.986.377-6.021.568-8.957l.187-2.883a.53.53 0 01.026.006c.406.092.863.194 1.376.194.052 0 .103 0 .155-.003a54.15 54.15 0 012.138-.04c2.249 0 4.548.123 6.772.24a254.9 254.9 0 003.425.168c15.273.61 30.475 1.286 44.627 1.926 1.407.063 2.875.106 4.17.143 2.733.08 5.552.163 8.317.426l.011 7.67-.02.628c-.017.504-.034 1.008-.034 1.508l-.002 10.775c-.004 17.895-.008 38.178.032 57.61 0 .25-.01.415-.023.522-.09.012-.226.022-.423.022-6.899-.03-14.276-.044-23.213-.044-5.92 0-11.839.006-17.759.012l-1.913.002c-.317 0-.574-.004-.797-.008l-.05-.002c-.19-.004-.36-.007-.509-.007-.468 0-1.25 0-1.832.62-.592.632-.586 1.384-.578 2.425l.002.179-2.976.006c-4.578.01-9.311.02-13.993.049-.593.003-1.149.083-1.686.16-.316.047-.602.089-.889.115-1.147.105-1.914.943-1.952 2.135a6.633 6.633 0 00-.003.229c0 .045.002.09 0 .125-.08.598-.012 1.2.048 1.73.023.2.07.613.064.836a2.102 2.102 0 01-.386.029M163.365 326.691c-6.51-.375-13.24-.762-19.86-1.111-.916-.049-1.732-.297-2.647-.804a18497.119 18497.119 0 00-34.098-18.844l-7.92-4.37c-.138-.076-.317-.175-.482-.27.098-.182.208-.377.291-.527.158-.28.282-.542.402-.796l.023-.05.799-.72c.787-.711 1.593-1.44 2.399-2.122 1.026-.869 1.002-1.767.897-2.225-.083-.359-.409-1.222-1.647-1.483-1.369-.288-1.97-.842-1.68-3.208.034-.27.012-.498-.002-.649l-.008-.084c-.071-.766-.144-1.552-.088-1.78.175-.194.97-.586 1.556-.875.378-.186 1.528-.752 1.854-1.973.21-.784.033-1.638-.528-2.537a.84.84 0 01-.085-.162c.009 0 .053-.122.275-.42 1.487-1.997 3.541-4.518 6.242-6.302 1.145-.757 1.41-1.62 1.43-2.21.02-.58-.173-1.44-1.208-2.241-1.112-.861-1.492-1.838-1.273-3.266.192-1.252-.363-2.233-.73-2.882l-.055-.098c-.637-1.132-1.272-2.267-1.907-3.401l-.632-1.13c1.16-4.22 2.06-8.547 2.93-12.735l.321-1.542c.199-.948.281-.948.678-.948.11 0 .232.008.364.023.11.013.226.034.345.056.332.06.702.127 1.093.127.992 0 1.794-.438 2.32-1.266l.06-.098c.892-1.404 1.904-2.997 2.117-5.134.236-2.366.598-4.779.949-7.112.085-.57.17-1.13.252-1.686 1.015.092 2.039.238 3.035.38.893.128 1.806.258 2.72.353 3.545.37 7.149.85 10.634 1.313 2.245.299 4.55.606 6.848.885 2.554.31 5.214.598 7.562.853 2.507.272 5.099.552 7.668.866 4.85.59 9.782 1.226 14.552 1.84 0 0 3.5.452 5.164.665l-.184 2.83c-.193 2.97-.393 6.04-.575 9.06-.85 14.153-1.529 25.57-2.134 35.935-.253 4.32-.497 8.638-.742 12.958l-.027.474c-.281 4.967-.572 10.09-.871 15.13-.206 3.473-.444 6.978-.674 10.368l-.22 3.262-5.503-.317zM489.775 320.591a2.194 2.194 0 01-.061-.203c-.244-.958-.57-1.865-.887-2.742-.125-.35-.251-.7-.37-1.051-.423-1.511-1.152-2.777-1.858-4-.225-.392-.458-.796-.672-1.196-.57-1.067-.804-2.002-.782-3.127.042-2.206.036-4.44.03-6.601v-.18c-.003-1.56-.006-3.173.009-4.754.012-1.307-.259-2.435-.851-3.547-.515-.966-1.061-1.925-1.59-2.853-1.268-2.228-2.58-4.532-3.429-6.902-2.5-6.984-4.86-14.17-7.142-21.119-.741-2.256-1.48-4.504-2.224-6.75l1.06-.19c2.059-.373 4.187-.757 6.291-1.168.714-.14 1.467-.245 2.195-.346 1.6-.221 3.235-.447 4.85-1.056.37-.076.744-.15 1.116-.223.914-.18 1.826-.361 2.726-.573.778-.183 1.556-.359 2.335-.535l.072-.016c2.387-.54 4.835-1.094 7.25-1.834-.114.204-.232.41-.352.618a33.413 33.413 0 00-.886 1.61c-.8 1.584-.442 2.835 1.064 3.716.645.377 1.306.736 1.888 1.053 1.874 1.021 3.645 1.987 5.119 3.423 3.238 3.157 7.055 6.252 12.012 9.74a251.76 251.76 0 014.459 3.235c1.114.821 2.377 1.752 3.605 2.63.492.353.803.753 1.042 1.34l.41 1.001c1.082 2.644 2.201 5.377 2.896 8.15.829 3.308 2.774 5.615 4.65 7.434-2.47 5.596-3.45 11.562-2.917 17.754h-.239c-1.322.005-2.645.01-3.967.013-1.319.002-2.19.004-2.81.804-.618.797-.45 1.68-.198 3.019l.012.063c.208 1.1.405 2.21.606 3.36a131.425 131.425 0 01-2.421-1.742c-.84-.62-1.679-.923-2.564-.923-.209 0-.42.017-.631.051l-14.136 2.265-4.962.792c-3.193.51-6.386 1.02-9.578 1.54-.06.01-.118.018-.17.02"/><path d="M554.3 400.884a2.782 2.782 0 01-.114-.205c-.512-1.005-1.055-2.004-1.579-2.97-.68-1.251-1.364-2.51-1.975-3.764-.962-1.976-2.364-2.39-3.37-2.39-2.907 0-4.608-1.37-5.516-4.443-.683-2.306-1.88-3.975-3.557-4.963-.111-2.298-1.813-3.33-2.965-4.03l-.118-.07c-.66-.403-1.184-.997-1.697-1.928-1.307-2.369-2.653-4.763-3.955-7.077-1.246-2.217-2.647-4.706-3.969-7.103-.637-1.156-.83-2.545-1.034-4.015-.088-.636-.188-1.357-.332-2.06-.54-2.638-1.026-5.331-1.495-7.937l-.044-.246c-.234-1.3-.469-2.598-.711-3.895l-.01-.052c-.089-.482-.24-1.295-.84-1.834-.53-.475-1.05-1.024-1.552-1.555-1.259-1.329-2.56-2.703-4.439-3.528-4.923-2.162-9.873-4.454-14.127-6.434-.549-.254-1.07-.378-1.592-.378-.571 0-1.125.143-1.74.449-3.38 1.68-6.837 3.348-10.18 4.96l-1.567.758c-.058.03-.134.067-.201.098-4.51-4.348-9.984-6-14.748-7.042-2.385-.521-4.8-.714-7.137-.901l-.132-.011c-.519-.041-1.038-.084-1.557-.13a5.54 5.54 0 00-.49-.02c-1.038 0-1.99.284-2.831.535-.428.128-.835.248-1.226.328-.402-.937-.888-1.796-1.361-2.632-.221-.39-.438-.771-.644-1.159l-.037-.069.098-.02c2.356-.492 4.712-.988 7.068-1.486l.552-.116c1.978-.417 3.955-.834 5.934-1.247 4.01-.838 8.022-1.67 12.034-2.503l5.092-1.057c.29.806.58 1.622.782 2.412.392 1.542 1.358 2.39 2.718 2.39.202 0 .41-.018.636-.055 3.187-.521 6.376-1.03 9.565-1.539l5.028-.803 14.075-2.254c.073-.012.143-.018.212-.018.302 0 .599.12.964.39 1.144.846 2.318 1.672 3.562 2.546.53.372 1.08.758 1.654 1.165a1.338 1.338 0 001.544.006c.472-.33.708-.92.605-1.504-.116-.655-.393-2.244-.393-2.244-.276-1.585-.536-3.082-.82-4.581l-.066-.359h.298c1.357-.003 2.683-.008 4.009-.013l.66-.002c2.384 11.093 8.282 20.647 18.514 30.015.463.424.494.608.461.99-.247 2.93.407 5.722 2 8.536 2.176 3.845 4.367 8.12 6.698 13.07.898 1.91 1.448 4.073 1.98 6.166.303 1.192.617 2.425 1 3.643.143.456.27.95.391 1.43.235.928.476 1.878.884 2.804 1.562 3.545 1.301 7.237 1.026 11.146-.102 1.452-.206 2.935-.215 4.417-.007 1.258-.18 2.37-.54 3.386a1.367 1.367 0 00-1.097-.562c-.083 0-.167.008-.25.024-.777.149-1.538.288-2.285.424-1.872.342-3.616.66-5.369 1.083a1.724 1.724 0 01-.167.033M556.768 249.382c-3.415-3.102-6.948-6.31-10.4-9.487a3.147 3.147 0 00-2.19-.866c-.375 0-.718.057-1.005.112l-.934.179c-1.513.288-3.078.587-4.618.96l-.196.048c-1.744.425-3.39.826-4.966.826-1.738 0-3.144-.507-4.424-1.595-.188-.16-.582-.432-1.1-.454a117.47 117.47 0 01-3.158-.188c-1.717-.117-3.473-.237-5.205-.237-2.383 0-4.329.224-6.125.705-3.79 1.012-7.295 3.117-10.684 5.153-.565.339-1.127.676-1.688 1.007-.04.023-.081.051-.12.08l-.47.345c-3.061 1.151-6.317 1.888-9.467 2.6-.819.185-1.629.369-2.437.559-.596.14-1.207.267-1.814.39.18-.749.386-1.491.587-2.218.174-.63.371-1.343.547-2.05.014-.058.025-.1.193-.236 1.49-1.205 3.011-2.472 4.354-3.59 5.322-4.43 10.825-9.01 16.983-12.266 1.063-.563 1.728-1.436 2.095-2.75.526-1.886 1.085-3.802 1.624-5.655l.488-1.675 14.434-3.577c13.611-3.37 29.039-7.192 43.964-10.916 1.016-.254 2.054-.493 3.058-.725 2.416-.558 4.907-1.133 7.34-1.952.672.6 1.273 1.325 1.905 2.087.626.754 1.27 1.53 2.024 2.233 2.308 2.146 3.53 4.691 3.734 7.781.103 1.547.412 3.182.97 5.146.34 1.188.177 1.927-.643 2.93-1.801 2.206-3.502 4.539-5.146 6.794-.462.634-.923 1.266-1.385 1.895-.365.495-.676.713-1.234.864-7.378 1.987-12.044 7.022-13.868 14.967a61.558 61.558 0 01-.448 1.78c-.246.936-.5 1.903-.685 2.896a.116.116 0 00-.001.007l-.022-.001c-1.624-.153-2.924-.419-4.091-.836-.522-.186-.978-.277-1.396-.277-.91 0-1.657.423-2.173 1.211l-2.207-2.004z"/><path d="M442.93 333.084c-.15-1.198-.493-2.306-.827-3.384l-.021-.066c-.08-.26-.16-.518-.236-.777-2.478-8.415-3.442-16.236-2.947-23.906.178-2.745-.057-5.474-.284-8.112-.057-.653-.113-1.3-.162-1.948a263.266 263.266 0 00-.579-6.238c-.454-4.51-.924-9.174-.84-13.764.062-3.415.031-6.88.001-10.23v-.053c-.01-1.099-.02-2.196-.026-3.294.324-.053.648-.106.97-.164 2.006-.36 4.01-.73 6.013-1.098l.228-.042c4.844-.89 9.842-1.81 14.766-2.608 1.073-.174 2.141-.402 3.174-.622l.038-.008c1.612-.343 3.273-.697 4.915-.832.812 2.443 1.615 4.89 2.418 7.336 2.29 6.969 4.655 14.175 7.173 21.206.938 2.619 2.316 5.039 3.648 7.379l.035.06c.507.892 1.03 1.813 1.514 2.72.352.66.5 1.28.492 2.069-.016 1.66-.012 3.33-.008 4.943v.08c.005 2.127.01 4.327-.031 6.481-.032 1.646.332 3.12 1.143 4.639.232.434.48.864.718 1.279.357.619.7 1.215.99 1.818l-3.882.806c-4.252.882-8.503 1.765-12.754 2.652-2.165.452-4.33.908-6.493 1.366l-.085.017c-2.325.49-4.65.981-6.977 1.466l-.072.015c-1.293.27-2.145.447-2.562 1.404-.416.954 0 1.734.629 2.914l.054.101c.218.41.448.815.677 1.22.363.641.712 1.257 1.008 1.879-.614.202-1.262.358-1.936.52a29.97 29.97 0 00-1.855.487c-.084-.115-.196-.296-.24-.368a5.882 5.882 0 00-.592-.835c-.016-.026-.09-.18-.133-.273-.251-.529-.77-1.623-2.021-1.623-.133 0-.269.014-.403.043-1.342.279-1.528 1.716-1.618 2.406-.02.158-.04.312-.06.393-.217.901-.514 2.134-.736 2.32-.22.182-1.348.21-2.223.226M516.893 124.15c.071-.8.032-1.575-.007-2.33a39.715 39.715 0 01-.035-.793c.263-.69.75-1.288 1.31-1.973.294-.362.594-.73.876-1.13 1.44-2.051 2.579-3.59 3.69-4.992.984-1.24.959-2.487-.074-3.705-1.243-1.466-2.214-2.723-3.054-3.956-.12-.177-.213-.32-.284-.436.117-.06.266-.13.455-.214.36-.161.751-.302 1.13-.437.448-.162.898-.324 1.35-.528 6.422-2.9 13.182-4.413 18.355-5.408.613-.118 1.325-.327 1.966-.985a616.744 616.744 0 013.366-3.427c.823-.834 1.646-1.669 2.466-2.506l.053-.05c.299-.274.869-.798.86-1.685-.004-.398-.134-.981-.73-1.504-.504-.442-.563-.885-.514-2.287.01-.285.02-.57.017-.853v-.035c-.02-3.14-.376-3.965-2.726-4.753l3.374-5.65c1.761-2.95 3.582-5.999 5.355-9.01.302-.51.6-.792 1.064-1.002 1.835-.83 3.705-1.64 5.514-2.422 3.203-1.385 6.506-2.814 9.718-4.406l1.53 4.278c2.118 5.926 4.308 12.054 6.485 18.07.387 1.072.767 2.173 1.133 3.238.878 2.553 1.783 5.182 2.91 7.718-.012 2.124.227 4.21.458 6.232.11.95.22 1.921.303 2.866.028.334.046.673.064 1.015l.002.051c.065 1.25.137 2.658.694 4.018-.06.454-.016.927.13 1.41 1.162 3.824 2.324 7.647 3.488 11.47-.566.455-1.188.864-1.838 1.293-.316.208-.639.421-.96.642-3.778-.504-7.175-.836-10.367-1.014l-.468-.323c-2.148-1.473-4.361-2.991-6.048-4.999-.512-.61-1.192-.933-1.967-.933-.425 0-.812.095-1.123.17l-31.55 7.428c-1.733.408-3.467.813-5.2 1.218l-.41.096c-3.527.824-7.171 1.676-10.761 2.534M414.148 357a2.846 2.846 0 01-.232-.103c-.912-.448-1.982-.784-3.182-.999-2.331-.416-2.934-1.353-3.15-2.729-.183-1.161-.91-2.085-1.9-2.408-2.311-.756-4.581-1.48-6.984-2.248l-2.449-.782a1.304 1.304 0 00-.404-.064c-.308 0-.613.11-.857.311a1.514 1.514 0 00-.537 1.237c.048 1.057.323 1.95.835 2.696h-.066c-1.46 0-2.643-.137-3.726-.431a132.097 132.097 0 00-4.053-1.011c-.995-.237-2.122-.505-3.215-.789a9.656 9.656 0 00-2.464-.304c-1.547 0-3.018.318-4.44.626-.65.14-1.29.279-1.908.381-.665.111-1.316.254-1.952.404l.113-2.852c.171-4.315.342-8.63.522-12.944l.006-.131c.048-1.161.098-2.36.247-3.49.724-5.468-1.063-10.573-5.17-14.763-1.932-1.971-2.605-3.92-2.397-6.952.153-2.257.141-4.534.13-6.737v-.114c-.003-.474-.005-.948-.005-1.422l2.06-.173c2.445-.204 4.89-.409 7.335-.624a18709.1 18709.1 0 0017.694-1.567l6.504-.578c.259.615.523 1.225.78 1.823.888 2.054 1.802 4.17 2.417 6.29.657 2.26 1.05 4.647-.5 6.8-.948 1.315-1.837 2.684-2.697 4.008-.533.821-1.084 1.669-1.636 2.484-.73 1.08-1.06 2.181-1.006 3.366.052 1.135.053 2.352.003 3.83-.01.334-.045 1.352.621 2.082.422.462 1.001.696 1.721.696.094 0 .192-.004.297-.012 2.249-.177 4.534-.34 6.747-.497l.072-.005c1.675-.119 3.324-.236 4.973-.36 1.895-.142 3.789-.294 5.683-.445l.354-.029c1.417-.113 2.834-.226 4.25-.335.472 2.164.983 4.343 1.478 6.453 0 0 .21.891.272 1.162h-.054c-.087 0-.174.002-.26.008-.219.015-.455.022-.743.022-.23 0-.458-.004-.687-.009l-.052-.001c-.263-.006-.527-.01-.792-.01-.709 0-1.552.032-2.44.271-.069 0-.127-.006-.185-.01a5.496 5.496 0 00-.447-.024c-.937 0-1.655.47-2.023 1.323a24.56 24.56 0 00-1.242 3.614c-.147.574-.058 1.134.25 1.579.51.737 1.319.772 1.707.788l.092.005c.163.01.331.015.499.015 1.08 0 2.194-.202 3.509-.635.495-.164.955-.246 1.366-.246.483 0 .905.11 1.292.34 1.001.592 2.04.893 3.088.893 1.138 0 2.268-.34 3.45-1.04l.07.207c.398 1.196-.02 1.93-.926 3.347l-.199.312c-1.607 2.542-1.445 3.47.909 5.23l.055.04c1.096.82 2.21 1.679 3.295 2.516l-.336.106c-.236.074-.491.154-.752.242a3.37 3.37 0 00-.123-.128c-.943-.918-1.88-1.843-2.817-2.767l-1.05-1.036c-.66-.65-1.556-1.008-2.521-1.008-1.623 0-3.5 1.057-3.946 3.075-.228 1.027-.348 1.887-.378 2.705-.005.12-.007.181-.253.338-.673-2.033-2.49-2.119-3.405-2.162-.21-.01-.403-.02-.557-.041a3.196 3.196 0 00-.454-.033c-.894 0-2.48.402-3.042 3.098-.03.14-.058.245-.082.325"/><path d="M426.747 333.783a372.93 372.93 0 01-1.524-6.68c-.266-1.235-1.088-1.943-2.257-1.943-.145 0-.295.01-.45.022-1.599.123-3.164.248-4.729.373l-.432.034c-1.752.14-3.505.28-5.258.411-1.565.118-3.13.23-4.694.34l-.363.026c-2.091.149-4.248.303-6.376.469a49.639 49.639 0 00-.014-3.766c-.025-.53.112-.952.487-1.506.571-.844 1.128-1.702 1.667-2.532.843-1.297 1.712-2.635 2.615-3.89 2.335-3.24 1.735-6.754.95-9.454-.671-2.311-1.625-4.518-2.547-6.652l-.028-.065c-.339-.784-.689-1.593-1.016-2.393V292.987c.002-3.365.004-6.845-.03-10.27a5.167 5.167 0 01.571-2.432c1.964-3.95 3.946-7.976 5.862-11.871l1.952-3.968c1.92-.076 3.807-.345 5.636-.605.897-.128 1.82-.259 2.722-.364 3.798-.441 7.657-.914 11.39-1.371l3.338-.409c.007.974.016 1.949.025 2.924.03 3.348.06 6.807-.001 10.211-.088 4.777.392 9.534.856 14.134.205 2.037.414 4.12.571 6.164.05.658.107 1.315.164 1.971.218 2.53.442 5.14.28 7.648-.52 8.041.484 16.214 3.067 24.986.082.28.168.558.254.838l.014.045c.298.958.581 1.873.705 2.778a7.09 7.09 0 01-.615.022c-.215 0-.43-.005-.646-.01a26.539 26.539 0 00-.71-.012h-.08c-3.395.02-6.972.618-10.941 1.826l-.073.022-.342-1.461M535.087 290.851c-1.373-1.412-2.71-3.155-3.289-5.467-.748-2.987-1.91-5.823-3.033-8.565l-.407-.997c-.453-1.112-1.102-1.943-2.042-2.616-1.224-.877-2.473-1.796-3.574-2.607a256.524 256.524 0 00-4.508-3.272c-4.83-3.4-8.538-6.403-11.666-9.453-1.752-1.706-3.775-2.81-5.732-3.876-.561-.306-1.13-.616-1.678-.932.221-.424.47-.856.71-1.276.633-1.102 1.283-2.232 1.687-3.56.089-.094.17-.202.24-.32.449-.267.897-.536 1.346-.806 3.23-1.939 6.568-3.943 9.99-4.858 1.568-.419 3.297-.614 5.441-.614 1.641 0 3.35.116 5.003.23.924.062 1.941.132 2.929.178 1.727 1.39 3.677 2.065 5.955 2.065 1.892 0 3.772-.457 5.59-.9l.198-.047c1.474-.359 3.006-.651 4.488-.934l.937-.18c.155-.03.352-.063.506-.063.159 0 .24.031.358.14 3.486 3.21 7.023 6.421 10.443 9.527l2.621 2.38c-.595 1.54-1.472 3.005-2.322 4.425l-.327.547c-1.135 1.91-1.632 4.024-1.396 5.955.372 3.051-1.259 4.828-3.075 6.295-3.216 2.596-5.643 5.888-7.99 9.072l-.096.133-.801 1.083c-.532.716-1.09 1.436-1.628 2.133-1.728 2.235-3.506 4.535-4.878 7.18M491.268 221.275c3.804-3.782 7.634-7.646 11.341-11.388l3.32-3.349c1.307.455 2.6 1.06 3.855 1.647.666.311 1.339.625 2.014.92.542.237 1.05.352 1.554.352.594 0 1.18-.161 1.791-.494 2.794-1.52 5.7-3.044 8.885-4.656 1.284-.65 2.003-1.577 2.33-3.01a294.218 294.218 0 011.529-6.238l.034-.135c.391-1.553.797-3.16 1.176-4.748.14-.589.35-.877.862-1.185 1.416-.854 2.827-1.754 4.192-2.625l.08-.052c1.145-.73 2.328-1.485 3.499-2.2.85-.52 1.686-1.072 2.495-1.606 1.22-.805 2.457-1.62 3.723-2.321.44.68.965 1.242 1.477 1.789.159.17.303.325.443.48 2.095 2.335 4.755 3.44 7.327 4.509.611.254 1.226.51 1.808.772 5.001 2.253 10.305 2.525 14.948 2.547.312.66.827 1.084 1.166 1.362.09.074.172.142.25.212.493.444.986.885 1.48 1.325l.136.122c2.185 1.947 4.438 3.954 6.424 6.168-1.947.59-3.952 1.053-5.902 1.503-1.035.239-2.08.48-3.11.737-14.715 3.672-29.588 7.356-43.97 10.918l-15.116 3.745a6.29 6.29 0 01-.134.011 5.167 5.167 0 00-.874.123 18986.68 18986.68 0 00-17.916 4.485l-1.117.28zM591.702 86.642c-.17-1.589-.315-3.177-.455-4.722l-.135-1.472c-.071-.771-.118-1.574-.16-2.282-.115-1.932-.233-3.93-.743-5.908-.644-2.5-1.354-5.15-2.33-7.66-.332-.856-.254-1.134.47-1.652.806-.577 1.448-1.257 2.07-1.914.217-.23.422-.448.633-.66.296-.297.99-.993 1.03-2.123.12-3.25.127-7.02-1.288-10.7-.06-1.577.526-2.376 2.224-2.926l2.015 4.917a6213.01 6213.01 0 005.848 14.248c1.09 2.641 2.188 5.278 3.288 7.914l.119.285c.843 2.023 1.686 4.045 2.525 6.069.014.034.025.067.036.1.04.117.088.263.16.421l-3.2 1.69c-3.91 2.063-7.819 4.126-11.732 6.183-.12.063-.246.128-.375.192M586.295 103.226c-.154-.69-.193-1.452-.234-2.246l-.003-.054c-.02-.377-.04-.751-.072-1.12a108.797 108.797 0 00-.31-2.95c-.18-1.574-.365-3.187-.422-4.776l.024-.001c.61-.027 1.234-.054 1.832-.054.415 0 .787.013 1.137.04.213.016.417.025.61.025.41 0 1.658 0 2.462-.982.307-.375.504-.835.587-1.372.522-.184.995-.423 1.413-.643 4.073-2.14 8.141-4.288 12.21-6.435l2.946-1.555c.456.53.973 1.085 1.69 1.41.29.131.424.234.48.286-.017.113-.095.38-.398.988-.113.228-.244.467-.377.712l-.024.044c-.71 1.3-1.514 2.776-1.086 4.211.403 1.354 1.706 2.062 2.856 2.685.341.186.664.36.932.535 1.994 1.299 3.958 2.561 6.01 3.877-2.937.052-5.72.905-8.276 2.537-.36.23-.687.341-1.001.341-.272 0-.572-.079-.916-.241-.959-.453-1.946-.773-2.9-1.083-.404-.131-.8-.26-1.192-.398a1.318 1.318 0 00-.627-.062c-2.136.304-4.047 1.138-5.895 1.945a59.95 59.95 0 01-1.878.795l-.554.182c-.444.145-.889.29-1.33.445-1.156.407-2.287.863-3.382 1.304-1.414.57-2.86 1.152-4.312 1.61M576.522 156.327a3.124 3.124 0 00-.263-.64l-.02-.033c-.01-.346-.084-.853-.433-1.303a33.186 33.186 0 00-1.972-6.675c.09-.067.192-.137.3-.21.534-.368 1.195-.82 1.647-1.705a51.103 51.103 0 013.448-5.791c.219-.316.886-1.275.655-2.387-.227-1.093-1.144-1.63-1.693-1.951a94.774 94.774 0 01-2.552-1.57c-.917-.577-1.86-1.17-2.818-1.725a1.288 1.288 0 01-.062-.039l.018-.093c.629-2.853 1.267-5.704 1.907-8.555l.38-1.696c2.601.165 5.345.433 8.342.814l-.169.746c-.44 1.946-.894 3.958-1.38 5.925-.134.544-.383 1.552.226 2.385.61.834 1.626.834 1.96.834h.087c.402-.007.8-.062 1.184-.115.34-.047.689-.096.956-.096.053 0 .096.002.132.005.028.316-.063 1.044-.115 1.458-.05.396-.096.772-.118 1.142-.077 1.332-.14 2.686-.202 3.998l-.003.057c-.16 3.446-.327 7.008-.766 10.444-.239 1.877-.821 3.752-1.5 5.596a1.485 1.485 0 00-.329-.553 1.367 1.367 0 00-.984-.43c-.16 0-.315.029-.465.085-.58.217-1.166.407-1.734.59-1.28.415-2.504.81-3.664 1.488"/><path d="M570.031 187.333c-4.41-.02-9.41-.274-13.934-2.312-.625-.281-1.263-.547-1.881-.804-2.289-.95-4.656-1.934-6.323-3.793-.15-.166-.303-.33-.457-.496-.42-.448-.81-.867-1.11-1.302.462-.295 1.07-.737 1.439-1.554.548-1.215 1.166-2.438 1.764-3.621.758-1.498 1.53-3.023 2.208-4.61l.014.01c.173.1.339.198.517.282 3.934 1.868 7.928 3.785 11.791 5.639l3.497 1.677c.46.996 1.124 1.963 2.02 2.946.959 1.052 1.27 2.214 1.043 3.887-.049.358-.093.718-.138 1.078l-.01.08c-.125 1.007-.244 1.968-.44 2.893M578.662 185.157a55.94 55.94 0 00-.57-7 8.068 8.068 0 00-.969-2.827c-.908-1.623-1.962-3.206-3.96-3.206-.754 0-1.596.226-2.817.755l-.684.3a757.522 757.522 0 00-.607-22.392c.696-.322 1.311-.73 1.91-1.127l.078-.05c.233 2.36.904 4.294 2.073 5.99.03.673.275 1.205.73 1.583l.011.018c.02.064.047.198.066.292.112.558.342 1.697 1.507 2.237.286.195.576.407.856.613.786.577 1.598 1.172 2.545 1.59 1.265.56 2.006 1.362 2.046 3.807.046 2.773.256 5.553.458 8.243.043.563.085 1.126.126 1.69.025.347-.106.657-.358 1.222l-.021.047c-.135.302-.282.598-.436.91-.785 1.588-1.731 3.5-1.086 5.815a4.864 4.864 0 00-.898 1.49M586.893 106.118c1.62-.5 3.185-1.13 4.705-1.743 1.071-.431 2.175-.876 3.272-1.262.246-.087.493-.17.74-.252l.733 1.556c.973 2.071 1.975 4.205 3.08 6.283-2.944 1.61-6.243 3.465-9.446 5.565l-3.084-10.147zM587.705 127.306c.324-1.793 1.007-2.787 2.35-3.561 2.154-1.24 4.304-2.82 6.972-5.121 1.88-1.62 4.128-2.08 6.525-2.41-4.069 6.052-10.172 8.955-15.847 11.092M601.923 109.38c-1.096-2.05-2.102-4.193-3.078-6.27l-.587-1.249c.173-.074.559-.243.559-.243 1.343-.586 2.622-1.144 3.934-1.489l.224 1.119c.451 2.265.918 4.607 1.424 6.908-.847.392-1.674.814-2.476 1.225M154.991 106.34c-1.355 0-2.41-.266-3.318-.839a2.706 2.706 0 00-1.468-.402c-.618 0-1.205.169-1.646.316-.853.284-1.778.416-2.912.416l-.248-.002c-.652-.008-1.439-.018-1.819-.076-.04-.421-.005-1.275.018-1.822.108-2.627-.664-4.635-2.361-6.14-.275-.243-.435-.499-.475-.76-.086-.562-.163-1.126-.24-1.69a68.944 68.944 0 00-.435-2.881c-.071-.392-.13-.788-.19-1.183-.335-2.24-.712-4.752-2.93-6.642-.498-.424-1.183-.911-2.061-.911-.573 0-1.12.197-1.718.62-.297.211-.6.418-.912.626.207-1.162.42-2.26.861-3.242.347-.77.768-1.557 1.175-2.317 1.352-2.524 2.883-5.383 2.416-9.03-.11-.856-.367-2.863-2.612-2.863-.13 0-.272.007-.426.022l-.082.008c-.155.015-.302.03-.437.03a.637.637 0 01-.14-.009c0-.004-.025-.031-.065-.099-3.454-5.81-7.263-12.663-8.72-20.5-.12-.635-.27-1.252-.414-1.847-.382-1.574-.711-2.931-.481-4.392.513-3.267.934-6.582 1.34-9.788l.315-2.468c1.54.347 3.08.697 4.62 1.047l.225.051c4.614 1.05 9.385 2.135 14.103 3.105 10.596 2.179 22.01 4.047 35.922 5.88 12.486 1.644 25.707 2.966 41.607 4.16 4.613.346 9.304.595 13.84.836l.049.003c2.32.123 4.641.246 6.961.383.175.01.353.027.534.049a14.6 14.6 0 00-.056.775c-.185 4.181-.365 8.363-.545 12.546l-.003.054c-.165 3.842-.33 7.685-.5 11.527a415.5 415.5 0 01-.19 3.791c-.066 1.254-.132 2.503-.188 3.752-.192 4.34-.377 8.68-.562 13.02l-.208 4.885c-.3.743-.313 1.463-.323 2.05-.002.12-.003.233-.007.346-.1 2.592-.206 5.184-.313 7.777l-.07 1.7-1.484-.095c-2.002-.128-4.07-.259-6.101-.406-6.803-.494-13.606-.994-20.409-1.495l-13.012-.955c-4.283-.315-8.568-.63-12.852-.938-2.131-.153-4.263-.304-6.395-.455-4.339-.307-8.792-.622-13.167-.954a4.332 4.332 0 00-.343-.014c-.726 0-1.303.23-1.713.68-.576.635-.613 1.455-.591 2.016.032.815.017 1.665-.002 2.496a53.329 53.329 0 00-3.107-.11c-.634 0-1.219.018-1.788.055-.504.033-1.019.085-1.516.135-.821.084-1.649.169-2.43.169M91.17 137.788c-.87-.14-1.758-.283-2.616-.45-7.264-1.408-14.527-2.823-21.79-4.238l-7.486-1.46c-2.893-1.162-5.88-2.077-8.771-2.963l-.052-.016c-1.32-.404-2.685-.822-4.013-1.257-6.108-1.997-12.331-3.964-18.35-5.866-2.356-.745-4.705-1.488-7.053-2.234-2.214-.704-4.43-1.403-6.647-2.103l-2.78-.878c-.413-1.454-.19-2.58.705-3.611 1.203-1.386 1.18-3.048 1.172-3.594-.004-.265.013-.544.03-.838.022-.375.043-.752.032-1.155-.082-3.123.766-5.975 2.835-9.536 4.491-7.732 7.504-16.3 10.417-24.584 0 0 .634-1.803.902-2.56 1.404-3.969 2.745-8.03 4.04-11.957l.038-.114c.635-1.923 1.27-3.846 1.914-5.765.01-.032.022-.064.034-.097l.916.245c1.853.494 3.769 1.006 5.675 1.478.287.07.45.18.67.448 1.421 1.731 2.675 3.7 2.222 6.35-.087.505-.064.969-.044 1.378.013.258.024.496.003.666-.124 1.007.054 1.809.53 2.383.464.558 1.154.84 2.05.84.121 0 .248-.004.382-.013a41.354 41.354 0 012.902-.108c3.931 0 7.316.658 10.35 2.01.297.133.58.196.806.247l.046.01c6.393 1.437 12.083 2.135 17.394 2.135 1.236 0 2.475-.038 3.682-.114a34.57 34.57 0 012.154-.068c3.81 0 7.557.621 11.456 1.899.315.103.632.209.95.315 2.312.776 4.683 1.57 7.243 1.57.443 0 .885-.024 1.319-.073l.577 1.214c.875 1.842 1.78 3.747 2.708 5.607a.935.935 0 01.085.206c-.005 0-.027.066-.126.227-.769 1.259-1.413 2.575-2.036 3.848-.26.532-.516 1.053-.779 1.569l-.253.498c-1.614 3.175-3.138 6.173-5.996 7.947-.532.33-1.419 1.043-1.395 2.124.01.467-.06.987-.135 1.538-.211 1.559-.473 3.495.99 5.351.832 1.056 1.07 1.704.88 2.391l-.447 1.591-.032.113c-.516 1.832-1.046 3.716-1.503 5.601-.226.935-.634 1.833-1.065 2.784-.494 1.089-1.003 2.209-1.293 3.491-.872 3.851-1.604 7.785-2.312 11.59l-.018.097c-.36 1.932-.73 3.922-1.117 5.891"/><path d="M158.759 149.33c-2.01-.133-4.038-.457-6.005-.77a120.697 120.697 0 00-3.503-.524c-2.163-.28-4.365-.614-6.495-.938l-.05-.008c-2.007-.306-4.081-.622-6.148-.895-1.222-.162-2.46-.361-3.657-.554-2.176-.35-4.424-.713-6.699-.875-.571-.4-1.174-.462-1.589-.505-.115-.012-.202-.02-.284-.036a9762.195 9762.195 0 00-26.416-5.166l-3.99-.776c.383-1.948.748-3.908 1.102-5.812l.017-.089c.703-3.778 1.43-7.685 2.29-11.485.222-.978.645-1.91 1.094-2.899.471-1.039.958-2.113 1.253-3.33.444-1.832.968-3.69 1.474-5.488l.481-1.717c.683-2.455-.786-4.318-1.413-5.113-.637-.809-.56-1.64-.37-3.04.066-.495.134-.999.156-1.524a.668.668 0 01.022-.014c3.533-2.192 5.317-5.701 7.042-9.095l.252-.495c.273-.534.537-1.073.8-1.613.594-1.212 1.208-2.466 1.902-3.602.712-1.163.763-2.216.167-3.412-.923-1.85-1.826-3.752-2.7-5.591l-.818-1.72c.281-2.03.535-4.07.781-6.045.61-4.89 1.24-9.946 2.282-14.812 1.337-6.236 2.79-12.56 4.194-18.676l.147-.637c.469-2.043.938-4.086 1.403-6.129 2.02.462 4.043 1.047 6.006 1.615l.79.228c-.119.921-.236 1.843-.353 2.764-.405 3.192-.822 6.485-1.327 9.695-.326 2.076.11 3.871.531 5.607.137.563.276 1.136.378 1.686 1.55 8.333 5.509 15.468 9.097 21.502.588.988 1.451 1.488 2.568 1.488.247 0 .48-.022.685-.042l.064-.006c.012.077.026.174.042.296.34 2.661-.78 4.755-2.079 7.178-.431.805-.877 1.638-1.267 2.505-.63 1.4-.871 2.766-1.127 4.213-.17.956-.345 1.946-.647 2.96a1.532 1.532 0 00.476 1.61 1.335 1.335 0 001.593.086c.486-.319.933-.609 1.352-.88.911-.59 1.698-1.1 2.477-1.652.072-.05.124-.082.16-.101.056.032.155.1.315.236 1.381 1.177 1.632 2.85 1.922 4.785.067.445.131.872.208 1.295.161.895.289 1.83.412 2.734.08.591.16 1.174.25 1.755.15.982.633 1.84 1.437 2.552 1.028.911 1.436 2.031 1.365 3.746-.075 1.812-.13 3.122.691 4.039.81.905 1.897.918 3.87.942l.272.002c1.411 0 2.637-.18 3.755-.553.133-.044.54-.18.808-.18.033 0 .055.003.068.005 1.352.844 2.852 1.237 4.719 1.237.915 0 1.81-.09 2.676-.18a40.86 40.86 0 011.442-.129c.512-.033 1.04-.05 1.616-.05 1.012 0 2.039.053 3.045.112a4.697 4.697 0 01-.02.217c-1.01 8.304-2 16.448-3.04 24.789-.488 3.929-1.005 7.93-1.46 11.46l-.492 3.82zM327.482 131.391c-.066-.956-.136-1.916-.28-2.876l-.06-.404c-1.065-7.132-2.167-14.502-3.35-21.737-.06-.364-.105-.728-.153-1.114-.18-1.454-.386-3.102-1.372-4.628-.67-1.035-1.36-2.106-1.343-2.445.018-.326.774-1.274 1.574-2.278l.031-.039c.053-.066.101-.138.146-.217.663-.776.597-1.677.56-2.17-.006-.09-.013-.162-.012-.23.008-.875.004-1.748-.001-2.62-.007-1.306-.013-2.643.025-3.943.056-1.89-.252-3.752-.942-5.692a86.471 86.471 0 00-.659-1.773c-.635-1.669-1.287-3.384-1.576-5.115a502.827 502.827 0 00-4.223-22.153c-.47-2.2-.998-4.661-1.2-7.149l3.335-.1c4.731-.145 9.585-.293 14.356-.395 1.769-.038 2.724-1.026 2.762-2.857.008-.41.064-.85.123-1.314.064-.495.135-1.054.148-1.627.002-.063.005-.108.008-.14.03-.014.077-.035.144-.062.314-.123.578-.233.805-.327l.056-.023c.108.247.237.54.402.882.78 1.623 1.54 3.302 2.275 4.925l.02.047c.384.849.769 1.699 1.158 2.546.025.054.048.119.073.184.177.465.46 1.214 1.221 1.521.668.27 1.34.649 2.053 1.05 1.483.834 3.163 1.78 5.074 1.78a5.79 5.79 0 001.334-.156 7.918 7.918 0 011.816-.217c2.606 0 4.978 1.438 7.07 2.706.538.326 1.272.7 2.183.7.45 0 .888-.088 1.341-.27 1.1-.442 2.195-.666 3.256-.666 1.718 0 3.43.59 5.086 1.75.858.603 1.653.895 2.43.895.92 0 1.763-.403 2.506-1.197.399-.425.81-.599 1.42-.599.527 0 1.122.131 1.751.27l.217.048c1.215.266 2.726.597 4.224.597 1.367 0 2.59-.268 3.728-.818a255.355 255.355 0 011.357.762c-4.874 3.258-8.766 7.63-12.54 11.867-.61.686-1.218 1.37-1.83 2.047-1.514 1.678-2.928 3.466-4.296 5.195-.39.492-.775.979-1.163 1.464a9.739 9.739 0 01-.178.215c-.389.464-.974 1.161-1.108 2.188a1.602 1.602 0 000 .393l.114.894c.29 2.251.588 4.576.491 6.833-.006.143-.02.496-.054.64-1.648.963-2.864 2.307-4.04 3.608-.359.397-.73.808-1.099 1.189-1.273 1.314-2.041 2.108-1.905 3.306.135 1.192 1.065 1.772 2.603 2.734.07.044.144.088.218.133.221.134.35.222.425.278-.299 1.762-.257 3.479-.216 5.141.023.92.046 1.87.006 2.777-.078 1.767.565 3.278 1.91 4.49 2.601 2.344 5.195 4.697 7.789 7.05 2.468 2.238 4.93 4.47 7.397 6.696.678.612.773 1.01.71 1.533-.04.334-.053.663-.052.977l-6.507.607c-5.959.555-11.919 1.11-17.878 1.675-2.34.221-4.678.452-7.017.684l-.04.004c-2.756.273-5.605.555-8.409.814-3.57.331-7.206.647-10.722.951l-3.506.305z"/><path d="M320.432 93.263c-.308-.01-.62-.017-.93-.017-20.718-.005-41.437-.007-62.156-.01l-13.89-.001.171-4.01c.18-4.217.36-8.435.547-12.652.055-1.24.12-2.48.186-3.72.068-1.274.135-2.549.192-3.824.16-3.654.318-7.308.475-10.962l.027-.618c.18-4.184.36-8.366.545-12.548.01-.231.03-.464.054-.702 5.363.05 10.666.232 15.772.544.435.027.87.03 1.277.03h.507c.25 0 .5.001.75.009 7.816.239 16.11.345 26.89.345 4.311 0 8.629-.017 13.04-.035 2.133-.01 4.29-.08 6.377-.15l1.586-.05c.208 2.744.77 5.373 1.273 7.717a499.372 499.372 0 014.196 22.016c.34 2.033 1.047 3.893 1.731 5.692.218.573.436 1.144.64 1.72.567 1.593.81 3.042.765 4.56-.04 1.366-.033 2.732-.026 4.052.005.858.009 1.715 0 2.573v.04zM103.118 71.232c-2.128 0-4.29-.725-6.38-1.426-.33-.11-.659-.22-.988-.328-4.17-1.366-8.187-2.03-12.281-2.03-.77 0-1.55.024-2.32.072-1.15.072-2.333.11-3.516.11-5.114 0-10.614-.678-16.814-2.071l-.05-.011c-.104-.024-.247-.055-.299-.079-3.382-1.508-7.121-2.241-11.432-2.241-.98 0-2.016.038-3.084.113.038-.396.02-.759.004-1.082-.014-.273-.026-.532.003-.701.667-3.907-1.179-6.76-2.861-8.81-.603-.734-1.283-1.175-2.141-1.387a323.008 323.008 0 01-5.598-1.458l-.847-.226.279-1.914c.401-2.752.816-5.598 1.269-8.388.16-.992.165-1.928.17-2.833 0-.294.002-.559.008-.824.039-1.765.033-3.55.027-5.275-.01-2.998-.02-6.098.209-9.118.14-1.83.024-3.655-.087-5.421-.053-.834-.105-1.658-.13-2.455l-.006-.187c3.355 3.002 7.13 5.341 10.788 7.609l.905.561c1.517.943 3.097 1.138 4.49 1.31.522.064 1.015.124 1.497.22.687.135 1.363.197 2.018.258.386.035.773.07 1.145.12.174.023.33.034.482.034 1.85 0 2.255-1.693 2.408-2.331.65-2.723-.053-5.162-.674-7.314-.318-1.101-.617-2.138-.745-3.174l-.077-.578c6.193 2.159 12.57 3.88 18.745 5.548l.108.03c1.387.374 2.774.749 4.16 1.129 6.606 1.81 13.332 3.607 19.836 5.345l.15.04c3.67.98 7.34 1.961 11.007 2.949.098.026.199.06.303.098-.52 2.282-1.043 4.562-1.567 6.842-1.41 6.133-2.866 12.475-4.217 18.777-1.069 4.988-1.707 10.107-2.325 15.058-.223 1.79-.449 3.606-.693 5.398a9.15 9.15 0 01-.879.041M393.673 142.464c-.2-.21-.396-.423-.59-.631-1.387-1.496-2.821-3.044-4.983-3.808-.459-.163-.718-.423-1.04-1.54-.264-.914-.508-1.865-.744-2.783-.542-2.105-1.093-4.252-1.936-6.323l-.013-.4c-.015-.452-.029-.87.014-1.23.29-2.39-1.183-3.718-1.667-4.154-2.403-2.168-4.8-4.342-7.199-6.516l-.19-.173c-2.596-2.355-5.193-4.71-7.797-7.057-.691-.623-.97-1.253-.932-2.106.044-1.01.02-2.01-.004-2.977-.04-1.643-.078-3.181.194-4.683.35-1.93-1.163-2.845-1.809-3.237l-.187-.114c-.262-.164-.625-.391-.92-.588.24-.264.54-.573.756-.797.406-.42.793-.847 1.167-1.26 1.086-1.202 2.11-2.335 3.39-3.074 1.377-.797 1.438-2.223 1.475-3.075.1-2.342-.164-4.622-.446-6.834 1.344-.33 2.566-.894 3.754-1.443.635-.293 1.273-.587 1.893-.828 1.745-.679 3.457-1.45 5.086-2.207.224 2.622 1.866 4.257 4.72 4.649.422.058.83.189 1.147.369 4.908 2.785 10.17 3.705 14.67 4.239 1.854.22 3.723.794 5.53 1.349 1.918.589 3.9 1.198 5.973 1.44 2.006.234 2.568 1.265 2.952 3.212.1.504.205 1.006.31 1.509.192.923.39 1.87.546 2.795.258 1.529.148 2.672-.359 3.705-.432.883-.697 1.8-.952 2.686l-.016.056c-.056.195-.112.389-.17.582-.344 1.147-.202 2.442.388 3.552.602 1.129 1.593 1.94 2.718 2.228.191.05.372.073.55.073.516 0 1.437-.207 1.822-1.59l.01-.04c.293-.698.576-1.386.859-2.075l.039-.094c.381-.929.809-1.971 1.248-2.971-.584 1.954-1.031 3.929-1.469 5.861-.224.99-.475 2.102-.736 3.154-.15.604-.09 1.17-.044 1.625.013.11.024.215.03.32l.686 10.286c.333 5.005.667 10.01.997 15.016.003.027.004.054.005.08-.135.022-.27.046-.405.074-7.828 1.585-15.655 3.175-23.482 4.765l-4.839.983zM420.242 227.233c-.33-.439-.67-.871-1.01-1.304-1.422-1.807-2.765-3.515-3.331-5.61-.365-1.356-.926-2.9-2.31-4.061-2.893-2.43-5.949-5.095-8.696-8.122a2.593 2.593 0 01-.306-.385 2.54 2.54 0 01.196-.289c.457-.608.853-1.243 1.235-1.857.39-.627.757-1.217 1.167-1.75.23-.3.934-1.213.706-2.354-.228-1.144-1.233-1.686-1.611-1.89-2.323-1.253-4.233-1.812-6.194-1.812-.384 0-.773.023-1.156.069-.12.014-.224.022-.318.022-.243 0-.254-.021-.307-.126-1.793-3.503-4.643-5.777-7.4-7.976l-.154-.124c-.43-.343-.64-.696-.725-1.218-.402-2.49-.789-5.031-1.163-7.487l-.392-2.574.093-.23c2.027-4.994 4.123-10.16 3.276-16.13a.459.459 0 00-.003-.022 1.75 1.75 0 01.25-.13c1.357-.599 2.712-1.243 4.023-1.865l.426-.204.13-.059c.537-.24 1.584-.708 1.828-2.003l.032-.173c.584-3.093 1.245-6.598-.834-9.978-.535-.868-1.157-1.602-1.76-2.311l-.194-.23 4.63-.94c7.372-1.498 14.744-2.995 22.116-4.489.395 2.472 1.839 4.364 3.129 6.054l.173.227c.791 1.039 1.606 2.08 2.395 3.086l.867 1.108.154 1.436c.148 1.385.297 2.77.432 4.155l.336 3.403c.374 3.78.757 7.65 1.09 11.455l.112 1.25c.369 4.106.717 7.984.194 11.988-.042.316-.085.635-.13.954-.49 3.554-1.045 7.582 1.493 11.246a.31.31 0 01.002.147c-.658 2.363-.761 4.738-.861 7.037-.07 1.607-.141 3.268-.415 4.831-.099.57-.14 1.142-.175 1.645-.076 1.076-.142 2.007-.684 2.689-.528.663-1.05 1.334-1.57 2.005-1.01 1.3-2.042 2.631-3.105 3.871-1.17 1.365-1.176 2.833-.022 4.14l1.498 2.398a11.121 11.121 0 00-.198-.002c-2.63 0-4.968.836-6.959 2.489M516.812 162.096c-.384-1.96-.828-3.923-1.259-5.824-.186-.82-.367-1.622-.544-2.424a1.431 1.431 0 00-.039-.143c-.17-.526-.194-1.127-.221-1.823-.03-.753-.064-1.603-.31-2.472-1.416-5.012-2.825-10.121-4.187-15.062l-1.28-4.642c.134-.118.304-.24.488-.372.205-.147.438-.313.669-.513 1.328-1.15 2.594-2.498 3.895-4.155-.034.536.013 1.29.491 1.88.265.327.756.716 1.59.716.3 0 .631-.047 1.078-.154 3.69-.884 7.445-1.76 11.077-2.61l.243-.057c1.79-.418 3.578-.836 5.367-1.256 5.749-1.352 31.566-7.432 31.566-7.432.154-.037.321-.078.435-.092 1.924 2.267 4.258 3.872 6.519 5.423l-.503 2.242c-.613 2.736-1.225 5.47-1.83 8.209-.323 1.468.183 2.672 1.423 3.39.922.534 1.842 1.113 2.731 1.673.852.537 1.732 1.091 2.628 1.615l.103.062a54.055 54.055 0 00-3.614 6.08c-.11.214-.33.372-.711.633-.366.25-.81.555-1.19 1.026-.71.327-1.334.74-1.939 1.142-.771.51-1.435.95-2.166 1.159-.13.022-.26.043-.392.063-.39.06-.78.12-1.192.233l-1.46.4a5047.946 5047.946 0 00-18.85 5.197 2203.855 2203.855 0 00-10.794 3.046l-4.731 1.343c-.094.016-.189.03-.283.045-.308.047-.643.099-.986.193l-1.757.479c-3.3.9-6.712 1.83-10.065 2.782M438.854 146.05c1.18-2.18 1.928-4.517 2.655-6.79.227-.709.461-1.442.704-2.153.65-1.905.662-3.898.036-6.093-.102-.353-.2-.707-.298-1.06-.583-2.105-1.187-4.28-2.334-6.328-.567-1.01-.808-2.282-.91-3.17-.276-2.375-.863-4.775-1.904-7.782-.455-1.316-.652-2.369-.224-3.554.685-1.898.702-3.813.719-5.664.006-.719.012-1.46.062-2.16.07-.973.42-1.977 1.042-2.986a74.657 74.657 0 002.022-3.434c.3 1.69 1.445 1.878 1.934 1.878.218 0 .441-.033.682-.1.072-.02.144-.038.216-.056.685-.175 2.505-.641 2.268-3.002a89.238 89.238 0 01-.206-2.548l-.007-.091a137.84 137.84 0 00-.13-1.732c1.075-.176 1.634-.744 1.915-1.192.673-1.077.362-2.33.176-3.08l-.042-.17c-.139-.58-.063-.689.668-1.5l.239-.266c1.017-1.15 1.923-1.685 2.853-1.685.79 0 1.726.373 2.857 1.142 2.265 1.538 4.704 2.796 7.063 4.012 1.03.531 2.092 1.078 3.116 1.638.058.031.12.062.184.094.238.866.548 1.688.85 2.486.778 2.065 1.45 3.848.793 5.878-.228.705-.46 1.409-.693 2.112l-.06.18c-1.024 3.1-2.084 6.305-2.805 9.61-.024.11-.05.224-.078.338-.246 1.031-.7 2.936.898 4.113.478.352.988.53 1.516.53 1.094 0 1.88-.772 2.4-1.282.15-.149.283-.278.388-.362.761-.609 1.443-1.5 1.87-2.447.843-1.864 2.521-2.478 4.464-3.189.17-.062.34-.123.509-.186.63 1.21 1.267 2.417 1.904 3.622 1.444 2.73 2.928 5.536 4.272 8.34.669 1.394 1.008 3.055 1.029 5.048-.328-.299-.763-.552-1.332-.552-.284 0-.565.066-.837.196-1.687.812-1.389 2.96-1.29 3.666.308 2.212-.463 4.255-1.279 6.418-.172.458-.345.915-.508 1.374l-.012.035c-.74 2.08-1.5 4.22-1.828 6.531-1.225.26-2.494.426-3.725.588-1.189.155-2.417.316-3.637.562-.506.101-1.03.157-1.586.215-1.074.114-2.181.23-3.297.683a3.286 3.286 0 00-.78-.09c-.421 0-.8.07-1.135.132-.118.022-.235.044-.35.06-2.303.336-4.64.695-6.9 1.043l-.221.034c-2.244.344-4.559.7-6.839 1.032-1.045.152-2.098.329-3.116.5-1.302.218-2.622.439-3.941.614M495.006 190.26c-.803-.518-1.53-1.23-2.292-1.978-.238-.233-.463-.453-.69-.669-1.022-.97-1.992-1.423-3.052-1.423-.575 0-1.15.136-1.756.414-2.649 1.213-5.422 1.38-8.025 1.38-.828 0-1.68-.02-2.505-.038-.308-.007-.58-.121-.957-.279l-.248-.103c-.884-.358-1.772-.796-2.631-1.219-1.25-.616-2.533-1.249-3.915-1.708-.35-1.427-.506-2.913-.67-4.477a68.627 68.627 0 00-.303-2.59 1301.984 1301.984 0 01-3.001-22.073 157.59 157.59 0 00-.508-3.572c-.326-2.172-.66-4.407-.807-6.617.638-.178 1.336-.252 2.065-.329.595-.063 1.207-.128 1.829-.253 1.134-.227 2.316-.382 3.46-.532 1.511-.198 3.066-.402 4.61-.777.467.147.936.292 1.404.436l.044.013c1.349.416 2.745.846 4.084 1.332.9.327 1.732.486 2.547.486 1.13 0 2.186-.303 3.228-.925 2.123-1.268 4.447-2.285 6.694-3.268 1.16-.508 2.36-1.033 3.539-1.595 2.157-1.027 3.77-2.361 4.93-4.079.963-1.424 2.36-2.408 3.837-3.449.245-.172.491-.346.737-.523l.91 3.301c1.29 4.678 2.75 9.98 4.2 15.109.147.517.17 1.088.196 1.75.025.642.053 1.361.218 2.098-.257.842-.233 1.657-.214 2.324.013.464.025.903-.056 1.248-.72 3.048-1.389 6.156-2.036 9.162l-.099.46c-.17.793-.442 1.084-.854 1.32-.78.445-1.529.935-2.254 1.408-.792.519-1.605 1.05-2.419 1.496-1.613.882-2.333 2.222-2.265 4.218.017.493.042 1.248.01 1.653-.371.048-1.062.054-1.553.058-.34.003-1.375.01-2.094.802-.644.71-.692 1.657-.672 2.308.023.728.012 1.489 0 2.225-.015 1.06-.032 2.156.048 3.27.121 1.704-.285 2.295-1.077 2.79-.643.403-1.17.934-1.637 1.416M433.275 213.399c.624-1.195.715-2.47.79-3.536.035-.48.067-.924.137-1.329.307-1.756.384-3.52.458-5.227.092-2.128.188-4.323.751-6.344.258-.928.093-1.971-.428-2.724-1.862-2.689-1.435-5.79-.983-9.074l.011-.078c.042-.301.083-.602.122-.9.568-4.343.188-8.574-.18-12.665l-.112-1.25c-.337-3.851-.721-7.733-1.092-11.488a2443.03 2443.03 0 01-.336-3.4 386.708 386.708 0 00-.37-3.578h.081c1.009 0 1.981-.458 2.973-1.402.34-.323.726-.624 1.135-.943l.255-.2c2.283-.162 4.538-.54 6.722-.906 1.027-.172 2.066-.346 3.084-.494 2.34-.342 4.715-.707 7.012-1.06 2.149-.33 4.583-.705 6.947-1.05.149-.021.3-.049.45-.077l.169-.03c.157 2.292.496 4.55.825 6.743l.01.062c.168 1.129.343 2.297.488 3.439a1310.65 1310.65 0 003.008 22.124c.117.816.207 1.686.287 2.452.195 1.879.398 3.82.968 5.74.235 1.25-.148 1.907-1.402 2.415-.451.183-.815.44-1.137.667-.202.143-.389.275-.543.348-2.274 1.074-3.24 2.86-2.871 5.308.212 1.407-.108 2.567-1.006 3.65-.779.94-1.463 1.945-2.124 2.917-.28.41-.56.82-.845 1.225-.801 1.134-1.265 1.776-1.471 1.776-.364 0-1.184-.293-2.133-.632-.55-.195-1.01-.286-1.459-.286-.854 0-1.646.341-2.418 1.043l-.156.142c-1.196 1.085-2.432 2.206-3.49 3.532-1.598 2.005-3.305 2.86-5.708 2.86-.193 0-.39-.005-.59-.017a7.327 7.327 0 00-.426-.012c-2.009 0-3.893.803-5.403 2.259M584.721 89.148c-.96-2.243-1.772-4.602-2.558-6.889a229.36 229.36 0 00-1.152-3.291 5002.867 5002.867 0 01-6.585-18.348l-1.406-3.933c2.303-1.213 4.735-2.244 7.093-3.243 1.11-.471 2.26-.957 3.396-1.464.61-.272 1.22-.563 1.81-.845 1.06-.506 2.147-1.025 3.247-1.43.753 2.504.844 5.176.73 8.347-.027.033-.076.09-.166.18-.228.23-.452.465-.675.701-.564.597-1.086 1.15-1.673 1.57-1.823 1.306-2.323 3.061-1.485 5.217.914 2.351 1.597 4.902 2.218 7.314.435 1.687.545 3.532.651 5.316.048.805.095 1.598.168 2.384l.134 1.468c.194 2.135.395 4.343.663 6.546.022.168.029.29.029.374a2.36 2.36 0 01-.303.016c-.129 0-.264-.006-.407-.017a17.242 17.242 0 00-1.34-.048c-.652 0-1.302.028-1.93.056l-.459.02M102.169 256.486a1308.422 1308.422 0 01-4.387-6.185 34000.531 34000.531 0 01-34.889-49.694l-.384-.547a31311.2 31311.2 0 00-12.882-18.37c-.238-.34-.351-.693-.184-1.411 2.148-9.256 4.283-18.514 6.418-27.773l.726-3.151c.853-3.697 1.703-7.393 2.553-11.09l.804-3.493 5.54 1.08a24800.83 24800.83 0 0022.567 4.39c.927.18 1.893.335 2.746.472l.057.01c.397.063.793.127 1.19.194l5.417 1.055c8.64 1.681 17.575 3.42 26.356 5.153.08.016.163.03.247.04-.044.255-.086.513-.12.777-.384 2.886-.763 5.773-1.141 8.66l-.615 4.692-1.022 7.765c-.631 4.794-1.262 9.587-1.89 14.381l-.46 3.507c-.836 6.39-1.699 12.978-2.532 19.46a5788.811 5788.811 0 00-1.91 15.068l-.833 6.607c-.137.972-.286 1.965-.436 2.959-.359 2.39-.727 4.84-.97 7.283-.14 1.408-.844 2.516-1.659 3.8l-.035.055h-.027c-.155 0-.378-.04-.593-.079a8.25 8.25 0 00-.55-.087 5.924 5.924 0 00-.658-.039c-2.722 0-3.236 2.456-3.404 3.263l-.321 1.54c-.705 3.389-1.43 6.877-2.295 10.304l-.424-.596zM332.722 289.024a2.014 2.014 0 01-.158-.256c-.13-.244-.267-.551-.398-.848-.547-1.234-1.228-2.769-2.768-3.086a2.544 2.544 0 00-.512-.052c-1.326 0-2.423 1.017-3.303 1.834-.202.187-.39.363-.574.518-.41.348-.867.497-1.527.497-.371 0-.761-.042-1.175-.088a28.14 28.14 0 00-.638-.065l-.301-.026c-.815-.07-1.658-.144-2.513-.144-.875 0-1.654.078-2.384.238a2.996 2.996 0 01-.642.077c-.568 0-.942-.198-1.292-.684-1.464-2.037-3.45-3.028-6.07-3.028-.33 0-.68.016-1.042.048-.796.069-1.494.102-2.135.102-2.351 0-4.192-.464-5.794-1.46a6.082 6.082 0 01-.23-.15c.096-1.007-.22-1.635-.51-1.99-.296-.36-.852-.791-1.817-.791a4.01 4.01 0 00-.506.035 5.409 5.409 0 00-.394-.019c-.176 0-.336.016-.49.048-.376.08-.75.12-1.114.12-2.08 0-3.836-1.354-5.457-2.74-.087-.076-.101-.087-.1-.64v-.11c0-2.207-.002-4.41-.004-6.615v-.078c-.007-6.448-.014-13.116.039-19.669.007-.918-.082-1.96-.797-2.723-.72-.767-1.732-.856-2.431-.856h-.04c-9.113.047-18.383.05-27.348.053l-7.413.002-.01-5.991 10.939.451c.534.304 1.064.385 1.5.453l.037.006c2.557.4 5.33.594 8.478.594.794 0 1.603-.012 2.475-.036 8.406-.232 16.636-.478 24.913-.945 11.215-.633 22.606-1.42 33.623-2.18l3.195-.22c4.006-.277 8.058-.62 11.977-.95 1.433-.121 2.842-.24 4.246-.356.01.083.02.163.032.243.16 1.034.278 2.11.393 3.152.194 1.766.392 3.575.797 5.366.33 5.233 1.106 10.51 1.791 15.167l.14.944c.997 6.759 2.028 13.745 1.685 20.68-.09 1.828-.055 3.655-.021 5.423l.003.153a72.296 72.296 0 01-2.865-1.524c-.774-.427-1.569-.865-2.37-1.278-.961-.494-1.92-.715-3.11-.715h-.04c-5.222.022-10.317 1.312-15.576 3.943a2.565 2.565 0 01-.394.166M366.899 297.726c-.016-1.834-.032-3.711.015-5.541.009-.362.037-1.46-.676-2.234-.695-.754-1.67-.754-1.99-.754-.068 0-.137 0-.21.004-.564.021-1.191.032-1.914.032-.622 0-1.243-.008-1.866-.016l-.375-.004c-.005-.332-.012-.663-.018-.995-.033-1.717-.067-3.493.018-5.207.359-7.24-.695-14.378-1.714-21.281l-.138-.942c-.613-4.159-1.303-8.842-1.665-13.488.474-.044.93-.115 1.379-.185.279-.043.557-.086.835-.122a863.16 863.16 0 015.857-.722 924.23 924.23 0 005.68-.7c4.38-.557 9.157-1.18 14.603-1.906 2.147-.286 4.292-.58 6.439-.875 2.381-.327 4.725-.648 7.072-.96 3.343-.442 6.748-.868 10.043-1.28-.195.439-.384.87-.56 1.271-.406.926-.826 1.883-1.262 2.808-.188.398-.686 1.455-.12 2.423.56.955 1.641.955 1.997.955h.111c1.317-.029 2.658-.033 3.796-.033h1.416a6175.283 6175.283 0 01-3.53 10.932l-1.132 3.502-2.193 4.456c-1.944 3.952-3.955 8.04-5.949 12.047-.621 1.25-.905 2.47-.89 3.836.033 3.45.03 6.95.03 10.335l-.001 2.443-6.507.577c-5.802.516-11.604 1.03-17.407 1.541-2.44.215-4.881.42-7.323.623l-1.846.155-.005-.695M249.58 237.479c-3.261-.378-6.554-.474-9.738-.567-1.284-.037-2.74-.08-4.127-.143a8554.83 8554.83 0 00-44.64-1.926c-1.13-.044-2.28-.106-3.391-.165-2.271-.12-4.6-.244-6.912-.244-.794 0-1.53.013-2.25.042h-.06c-.202 0-.48-.062-.774-.128a14.816 14.816 0 00-.388-.085l.1-1.746c.141-2.46.286-5.004.51-7.49.26-2.878.47-5.79.658-8.358.197-2.72.442-5.489.679-8.166.167-1.887.336-3.802.49-5.688.066-.82.136-1.641.206-2.462l.009-.102c.186-2.168.378-4.406.499-6.628.272-5.002.754-10.085 1.184-14.457.11-1.116.186-2.234.259-3.316.11-1.615.22-3.269.446-4.877l3.69.28c3.674.28 7.347.558 11.02.835 2.748.207 5.496.416 8.243.625l.606.046c8.329.634 16.942 1.29 25.435 1.881.76.053 1.544.13 2.301.205 1.463.144 2.97.292 4.492.292.606 0 1.169-.023 1.718-.07 1.813.005 3.626.013 5.439.021l.247.001c2.377.012 4.754.022 7.13.022 2.9 0 5.332-.015 7.654-.05h.089c.187 0 .318.01.405.022.012.116.023.303.019.6-.056 3.994-.032 8.032-.01 11.936.01 1.507.018 3.011.023 4.516l.007 45.809-11.268-.465zM169.432 233.392c-4.762-.613-9.686-1.248-14.534-1.839-2.553-.311-5.15-.593-7.66-.865l-.043-.005a597.378 597.378 0 01-7.528-.849 579.06 579.06 0 01-6.73-.869l-.071-.009c-3.496-.466-7.11-.947-10.725-1.324-.863-.09-1.75-.217-2.606-.339-.996-.142-2.007-.286-3.03-.383l.617-4.896c.639-5.07 1.277-10.14 1.928-15.209.833-6.484 1.697-13.076 2.531-19.45l.46-3.509c.628-4.797 1.26-9.594 1.891-14.391l1.02-7.753.589-4.489c.387-2.953.775-5.907 1.167-8.86.025-.19.056-.383.089-.578 1.902.175 3.822.484 5.684.784 1.244.2 2.49.4 3.73.565 2.02.267 4.076.58 6.064.882 2.194.334 4.427.674 6.637.96 1.135.147 2.295.332 3.417.51 2.004.32 4.062.648 6.15.793a7.979 7.979 0 01-.023.203l-.035.278c-.544 4.346-1.106 8.84-1.686 13.25-.093.707-.122 1.614.483 2.348.678.825 1.704.825 2.041.825l.16-.001c.934 0 1.922.094 2.877.185.416.04.826.079 1.237.111l12.922 1.037 3.094.25c-.22 1.644-.331 3.287-.44 4.883a106.207 106.207 0 01-.25 3.223c-.434 4.404-.92 9.527-1.195 14.592-.12 2.183-.309 4.393-.492 6.531-.074.86-.147 1.72-.217 2.58a753.11 753.11 0 01-.484 5.629 523.28 523.28 0 00-.687 8.25 478.764 478.764 0 01-.653 8.304c-.229 2.54-.375 5.109-.517 7.592l-.098 1.707c-1.634-.209-5.084-.654-5.084-.654M412.828 259.66a5656.43 5656.43 0 003.435-10.636c.04-.124.084-.245.129-.367l.013-.039c.178-.482.395-1.073.425-1.775.092-.191.197-.433.26-.725.55-2.522 1.094-5.045 1.638-7.568l.335-1.562.482-.074c1.072-.166 2.148-.331 3.206-.512a12170.413 12170.413 0 0055.395-9.56c2.464-.43 4.964-.89 7.381-1.334 0 0 2.367-.435 3.5-.64.031-.006.058-.012.084-.019l3.967-.994c5.482-1.374 10.964-2.748 16.448-4.119a534.382 534.382 0 00-1.677 5.836c-.163.585-.36.784-.667.947-6.413 3.39-12.029 8.066-17.461 12.587l-.054.046a386.417 386.417 0 01-4.269 3.518c-.633.513-1.013 1.094-1.197 1.83a78.37 78.37 0 01-.52 1.948c-.344 1.247-.691 2.503-.937 3.802-1.135.342-2.331.508-3.59.683-.788.109-1.577.218-2.363.372-2.12.415-4.316.811-6.254 1.16l-2.59.47c-2.178.064-4.276.51-6.306.943-1.019.217-2.062.44-3.079.604-4.976.808-9.98 1.728-14.819 2.618-2.077.382-4.153.764-6.232 1.138-.459.083-.92.155-1.38.228l-.735.117c-1.542.186-3.135.382-4.728.577l-.12.015c-3.724.456-7.575.928-11.362 1.368-.953.111-1.929.25-2.79.373-1.361.194-2.753.392-4.137.504l.57-1.76zM500.836 246.834c-.14.254-.149.745-.565.497l.565-.497"/><path d="M421.298 230.165c1.652-1.66 3.585-2.47 5.903-2.47.543 0 1.114.046 1.698.135.11.017.22.025.335.025.2 0 .382-.025.557-.048.104-.014.222-.03.364-.043.49-.043.926-.36 1.14-.827a1.554 1.554 0 00-.091-1.458l-2.229-3.566c1.686-1.092 3.638-2.63 5.112-4.998 1.116-1.794 2.79-2.823 4.591-2.823.093 0 .185.002.278.007.25.015.496.022.738.022 3.224 0 5.716-1.242 7.843-3.91.912-1.142 2.06-2.185 3.17-3.193l.16-.144c.362-.33.522-.33.6-.33.133 0 .316.043.558.13 1.33.474 2.209.787 3.033.787 1.615 0 2.352-1.043 3.69-2.936.313-.442.602-.865.89-1.29.627-.92 1.27-1.866 1.959-2.697 1.447-1.745 2.007-3.784 1.664-6.06-.142-.944.015-1.565 1.252-2.149.371-.175.682-.395.956-.588.219-.155.426-.3.584-.365 1.74-.705 2.83-1.928 3.155-3.507.81.337 1.616.734 2.456 1.148.909.448 1.843.909 2.814 1.302l.226.093c.521.218 1.113.466 1.872.484.88.02 1.76.04 2.615.04 2.764 0 6.012-.193 9.134-1.624.25-.114.462-.17.647-.17.226 0 .565.076 1.188.668a49 49 0 01.597.578l.059.059c.972.953 1.975 1.937 3.256 2.646.172.407.416.718.623.956.632.723 1.266 1.444 1.901 2.164 1.758 1.996 3.558 4.04 5.248 6.105.29.355.6.69.873.986.401.436.787.855 1.092 1.293l-3.056 3.083c-3.88 3.916-7.891 7.965-11.9 11.945-.545.54-1.24 1.36-1.448 2.543l-2.484.456c-2.37.434-4.821.884-7.23 1.305-8.83 1.546-18.171 3.169-27.764 4.824-9.447 1.63-19.002 3.263-27.45 4.706l-.171.03c-.755.128-1.522.25-2.279.367l1.271-3.691zM513.351 206.506c-.13 0-.287-.042-.488-.13a85.234 85.234 0 01-1.937-.885c-1.41-.66-2.855-1.334-4.382-1.845-.508-.97-1.206-1.726-1.829-2.402-.277-.3-.53-.577-.76-.857-1.738-2.124-3.557-4.19-5.317-6.186l-.107-.123a565.282 565.282 0 01-1.535-1.746c.364-.376.714-.723 1.069-.946 2.433-1.523 2.556-3.899 2.438-5.553-.07-.971-.055-1.999-.04-2.993a51.336 51.336 0 00-.002-2.439c1.695-.014 2.816-.023 3.61-.9.8-.885.76-2.071.7-3.868-.031-.91.152-1.16.758-1.49.91-.497 1.769-1.06 2.6-1.604.698-.456 1.41-.922 2.116-1.325 1.188-.679 1.924-1.746 2.25-3.262l.096-.444c.415-1.927.838-3.895 1.278-5.858.088.429.174.86.257 1.288.371 1.934 1.555 2.223 2.228 2.223.29 0 .606-.05.994-.16 3.418-.972 6.906-1.924 10.28-2.844l1.424-.388c.223 1.169.523 2.298.814 3.398.312 1.175.633 2.385.836 3.568.119.697.537 1.63 1.854 2.119 1.18.437 2.253.65 3.282.65.482 0 .959-.048 1.419-.144 1.58-.329 3.177-.686 4.72-1.032 2.084-.467 4.22-.945 6.32-1.355.114-.022.223-.05.33-.08-.493 1.06-1.023 2.105-1.54 3.128-.623 1.23-1.26 2.489-1.842 3.78-.04.087-.191.192-.497.382-.324.203-.72.449-1.071.85-1.734.863-3.343 1.924-4.9 2.952-.81.534-1.631 1.075-2.445 1.574-1.207.738-2.416 1.509-3.584 2.255-1.376.878-2.769 1.767-4.172 2.613-1.165.702-1.86 1.664-2.186 3.026-.38 1.597-.79 3.22-1.186 4.79l-.015.055c-.492 1.948-1.05 4.156-1.543 6.304-.129.563-.298.778-.823 1.043a336.558 336.558 0 00-8.957 4.694c-.275.15-.426.167-.515.167M574.521 155.114c-1.631-2.148-2.153-4.664-2.177-7.345a31.493 31.493 0 012.177 7.345M575.055 156.111c-.675-.22-.552-.614-.52-.988.682.22.506.625.52.988M575.205 156.656c-.125-.186-.251-.372-.378-.557l.378.557z"/><path d="M565.191 172.074c-3.859-1.852-7.85-3.767-11.78-5.634-.09-.042-.18-.097-.27-.15-.412-.244-.996-.59-1.724-.59-.154 0-.307.016-.46.046a2.68 2.68 0 00-1.056-.214c-.622 0-1.16.203-1.591.366-.19.072-.386.146-.52.173-2.142.418-4.3.901-6.386 1.368l-.108.025c-1.501.336-3.053.683-4.577 1a4.332 4.332 0 01-.88.088c-.71 0-1.481-.158-2.359-.483a1.805 1.805 0 01-.06-.024c-.227-1.27-.552-2.492-.866-3.676-.283-1.068-.573-2.16-.777-3.248l3.567-1.012c3.53-1.003 7.18-2.04 10.796-3.047 6.28-1.749 12.672-3.502 18.856-5.198l1.295-.355c.296 7.241.49 14.418.575 21.368l-1.675-.803zM238.127 172.185c-1.391 0-2.833-.142-4.227-.279a83.108 83.108 0 00-2.382-.21c-8.515-.594-17.107-1.248-25.417-1.88l-.068-.006c-2.928-.223-5.856-.446-8.784-.667-3.68-.277-7.358-.556-11.038-.835l-4.934-.375s-13.549-1.089-17.534-1.407a83.367 83.367 0 01-1.158-.105c-1.014-.097-2.03-.194-3.06-.2.587-4.475 1.152-8.992 1.698-13.362.058-.464.084-.93.106-1.34.01-.19.02-.348.03-.504.218-1.701.438-3.401.657-5.102.483-3.745.983-7.617 1.464-11.477 1.05-8.442 2.077-16.88 3.039-24.798.06-.493.062-.954.065-1.401a101.897 101.897 0 01.032-1.78c.02-.843.04-1.705.02-2.572 4.27.323 8.605.63 12.8.927l.515.036c1.968.139 3.936.278 5.904.42 4.15.298 8.298.603 12.447.908l13.993 1.028c6.61.486 13.22.972 19.831 1.451 2.075.15 4.18.284 6.218.414l1.468.094-.072 3.717c-.062 3.17-.123 6.34-.192 9.51-.09 4.173-.185 8.347-.28 12.52l-.135 5.87c-.18 2.361-.2 4.736-.217 7.032-.014 1.747-.029 3.547-.115 5.3-.234 4.804-.284 9.682-.332 14.4-.015 1.537-.031 3.108-.053 4.671-.095.002-.191.002-.289.002M322.033 144.4c-.502-.13-1.005-.257-1.496-.38-1.697-.427-3.44-.865-5.055-1.471-1.425-.534-2.673-.794-3.813-.794-2.02 0-3.728.786-5.213 2.401-.379-.432-.772-.823-1.153-1.203-.474-.474-.916-.914-1.29-1.384-1.177-1.478-2.666-2.167-4.685-2.167-11.88.036-23.636.04-32.552.04l-24.223-.005c-.197 0-.397-.003-.597-.009l.093-4.036c.099-4.312.197-8.623.29-12.936.069-3.192.131-6.385.193-9.579l.1-5.07.116-2.84c.11-2.704.222-5.409.326-8.114.005-.136.007-.273.01-.41 0-.089.002-.175.005-.257l9.027.001 66.653.01c-1.182 2.007-.681 3.199 1.193 6.1.61.944.749 2.057.91 3.345.05.406.102.823.169 1.235 1.18 7.213 2.28 14.572 3.342 21.688l.062.41c.122.819.187 1.686.246 2.533h-2.035c-.487 0-.93.261-1.186.698a1.54 1.54 0 00-.065 1.433l.46.98c.237.501.437.926.632 1.353.284.622.64 1.244.955 1.792.582 1.017 1.241 2.166 1.198 2.937-.041.747-.826 1.634-1.657 2.573-.321.363-.65.736-.96 1.127"/><path d="M336.265 177.435c.009-.12.022-.255.038-.395.022-.203.042-.404.054-.6.255-4.5.068-9.242-3.011-13.442a3.67 3.67 0 01-.114-.299 9.457 9.457 0 00-.087-.238 721.698 721.698 0 00-1.321-3.456l-.023-.06c-1.178-3.07-2.396-6.243-3.5-9.389-.618-1.759-1.656-2.543-3.367-2.543-.083 0-.168.002-.257.005-.3.012-.561.021-.785.021.001-.109.004-.235.008-.377.31-.443.708-.893 1.13-1.368 1.083-1.225 2.307-2.61 2.407-4.421.093-1.687-.805-3.255-1.597-4.638-.31-.542-.604-1.054-.83-1.547l-.104-.228h1.294c.037 0 .074-.002.11-.005 1.332-.117 4.752-.413 4.752-.413 3.564-.31 7.25-.629 10.893-.966 2.819-.261 5.682-.545 8.452-.819 2.36-.234 4.689-.464 7.018-.684 6.004-.569 12.01-1.128 18.014-1.688l6.655-.62c.62 1.677 1.077 3.457 1.521 5.184.243.947.495 1.927.775 2.897.412 1.434 1.04 2.847 2.824 3.478 1.525.54 2.614 1.714 3.876 3.075.351.378.695.75 1.051 1.109.52.835 1.126 1.547 1.71 2.237.562.661 1.086 1.28 1.502 1.956 1.449 2.354.994 4.845.45 7.723a5.48 5.48 0 01-.19.088c-.076.034-.15.067-.22.101l-.41.194a157.903 157.903 0 01-3.969 1.842c-1.87.825-2.083 2.258-1.933 3.315.67 4.724-.816 8.901-2.56 13.24a27.423 27.423 0 01-.59-.803 47.413 47.413 0 00-.336-.468c-.983-1.341-2.249-1.993-3.87-1.993-.289 0-.593.02-.93.06-6.021.722-12.389 1.452-19.467 2.231-6.303.694-12.852 1.395-18.63 2.014l-6.433.69z"/><path d="M409.37 245.038c.308-.679.605-1.355.877-1.975l.02-.045c.351-.802.715-1.632 1.086-2.432.408-.877.427-1.64.058-2.267-.197-.335-.68-.896-1.7-.896-.136 0-.285.01-.443.03l-1.095.137c-3.382.423-6.865.859-10.29 1.312-2.29.303-4.58.617-6.87.931l-.215.03c-2.142.294-4.284.588-6.427.873-5.419.722-10.19 1.346-14.588 1.905-1.823.232-3.649.453-5.474.675l-.19.023c-1.958.237-3.916.474-5.873.724a33.07 33.07 0 00-.906.132c-.467.072-.915.142-1.35.176-.239-1.313-.388-2.669-.533-3.987l-.006-.053a74.45 74.45 0 00-.407-3.26c-.015-.097-.024-.197-.033-.296-.037-.398-.083-.89-.293-1.395.033-2.65-.233-5.269-.49-7.803-.151-1.483-.305-3-.394-4.481-.326-5.38-.755-10.816-1.17-16.072a3084.55 3084.55 0 01-.364-4.646c-.062-.805-.252-3.257-2.758-3.257-.216 0-.444.018-.695.055a2.107 2.107 0 01-.12.014 2.45 2.45 0 01-.031-.147c-.333-1.877-.81-3.613-1.416-5.16-.39-.998-.254-1.327.358-1.81 1.028-.812 1.125-1.647 1.026-2.205-.145-.816-.734-1.38-1.748-1.677-.796-.233-1.61-.522-2.399-.801l-.732-.259c-.396-.459-.794-.916-1.192-1.374l-.04-.045c-1.151-1.324-2.326-2.675-3.428-4.035-.3-.368-.617-.72-.897-1.03-.126-.14-.251-.278-.372-.415l5.436-.584c6.007-.643 12.218-1.31 18.325-1.981 7.097-.781 13.474-1.512 19.493-2.234.23-.028.432-.041.615-.041.768 0 1.203.222 1.662.848.1.136.2.275.299.413.578.808 1.207 1.687 2.06 2.393l.334 2.191c.363 2.386.774 5.09 1.196 7.705.206 1.271.793 2.278 1.795 3.078l.155.124c2.519 2.01 5.123 4.087 6.626 7.024.56 1.095 1.515 1.674 2.763 1.674.193 0 .4-.013.632-.04.279-.034.562-.051.84-.051 1.464 0 2.95.439 4.8 1.421-.441.593-.824 1.208-1.196 1.805-.364.585-.707 1.137-1.092 1.65-1.189 1.585-1.1 3.031.28 4.552 2.862 3.152 6.005 5.896 8.976 8.39.72.605 1.065 1.46 1.362 2.56.727 2.694 2.324 4.724 3.868 6.688l.038.047c.331.422.662.843.983 1.27.13.174.264.345.4.514l-1.902 5.521c-.02.057-.038.119-.05.181l-.49 2.27a2857.38 2857.38 0 01-1.6 7.403h-2.218c-.87 0-1.86.001-2.876.015"/><path d="M271.828 239.039c-3.01 0-5.65-.184-8.068-.562l-.12-.018-.007-44.852c6.185-.011 12.948-.212 21.22-.63 2.856-.145 5.713-.283 8.569-.42 3.86-.187 7.85-.38 11.775-.587 1.508-.079 3.016-.156 4.524-.232l.258-.013c4.45-.226 9.037-.459 13.55-.756 4.538-.298 9.147-.537 13.605-.768l.262-.014c1.806-.094 3.612-.188 5.418-.286.27.094.54.19.809.285.457.162.924.328 1.397.486-.873 1.192-.982 2.647-.318 4.341.532 1.359.953 2.898 1.25 4.574.293 1.65 1.248 2.558 2.689 2.558.187 0 .379-.015.588-.045.093-.014.167-.021.224-.025.02.112.044.283.065.544.105 1.355.21 2.71.318 4.065l.046.585c.416 5.273.843 10.688 1.166 16.016.094 1.556.252 3.107.404 4.607.216 2.126.438 4.317.473 6.478-1.376.114-2.752.23-4.128.347-3.912.33-7.957.672-11.944.947l-3.28.227c-10.982.758-22.336 1.542-33.506 2.172-8.256.465-16.46.71-24.837.941-.852.023-1.637.035-2.402.035M263.61 187.602c-.022-3.895-.046-7.921.01-11.875.013-.99-.071-2.01-.774-2.765-.713-.764-1.739-.853-2.448-.853h-.115c-2.266.034-4.757.05-7.62.05-2.413 0-4.826-.01-7.239-.022h-.128a2365.56 2365.56 0 00-4.088-.017c.021-1.47.036-2.944.05-4.384l.003-.184c.047-4.687.096-9.534.328-14.286.09-1.818.104-3.65.118-5.421.014-1.799.029-3.645.122-5.467.24.006.482.01.723.01 0 0 19.49.006 24.227.006 8.915 0 20.669-.004 32.529-.04 1.225 0 1.922.303 2.57 1.116.48.604 1.004 1.126 1.51 1.63.377.377.734.732 1.057 1.104.24.276.97 1.116 2.037 1.116.462 0 1.155-.163 1.832-.945 1-1.154 2.035-1.668 3.354-1.668.818 0 1.76.204 2.881.624 1.756.658 3.571 1.115 5.328 1.557.404.102.815.205 1.225.31.011.822.13 1.51.63 2.061.666.731 1.637.731 2.159.731.252 0 .547-.009.89-.022a3.76 3.76 0 01.153-.003c.503 0 .533 0 .75.618 1.124 3.204 2.357 6.414 3.548 9.519.449 1.167.888 2.313 1.323 3.46.023.058.043.114.063.171.112.315.249.7.521 1.073 2.514 3.43 2.654 7.533 2.432 11.457-.009.141-.026.29-.042.439-.088.814-.22 2.033.61 3.13.544 1.163 1.32 2.022 2.07 2.854.287.317.553.611.797.912.965 1.19 1.971 2.36 2.96 3.5l-3.037.158c-4.449.231-9.048.47-13.573.768-4.52.297-9.09.528-13.51.752l-.542.028c-1.415.072-2.83.144-4.246.218-3.876.204-7.818.395-11.633.58l-.13.005c-2.859.138-5.717.277-8.575.421-8.227.416-14.949.616-21.093.627-.004-.946-.017-3.053-.017-3.053"/></g><g filter="url(#a)" transform="translate(328 325)" fill-rule="nonzero"><circle fill="#FFF" cx="22" cy="22" r="22"/><path d="M18.805 9.282a1.116 1.116 0 00-1.108 1.118l.016 5.852c0 .615-.494 1.115-1.107 1.119l-6.196.017a1.116 1.116 0 00-1.108 1.119v.541a1.117 1.117 0 001.115 1.112l9.02-.025a1.117 1.117 0 001.11-1.12l-.026-8.623a1.117 1.117 0 00-1.115-1.112l-.6.002z" fill="#E43439"/><path d="M25.062 9.263c.613 0 1.11.497 1.115 1.112l.017 5.85a1.116 1.116 0 001.114 1.112l6.196-.017c.613 0 1.111.497 1.115 1.112v.541c0 .616-.495 1.116-1.109 1.12l-9.02.026c-.614 0-1.112-.497-1.115-1.112l-.025-8.623c0-.616.495-1.116 1.108-1.12h.604z" fill="#0079BB"/><path d="M18.875 33.645c-.613 0-1.11-.498-1.114-1.113l-.018-5.91a1.116 1.116 0 00-1.114-1.111l-6.195.018c-.613 0-1.111-.497-1.115-1.112v-.482c0-.616.495-1.116 1.108-1.12l9.021-.025c.613 0 1.111.497 1.115 1.112l.024 8.622c0 .616-.495 1.116-1.108 1.12h-.604z" fill="#F08F00"/><path d="M24.15 35.062a1.082 1.082 0 01.007-1.554l4.342-4.193a1.063 1.063 0 00-.005-1.543l-4.365-4.166a1.062 1.062 0 01-.004-1.542l.358-.348a1.179 1.179 0 011.61-.008l6.393 6.055a1.057 1.057 0 01.007 1.54l-6.364 6.145a1.152 1.152 0 01-1.594-.007l-.385-.38z" fill="#54AB42"/></g><g filter="url(#b)" transform="translate(4 51)" fill-rule="nonzero"><circle fill="#FFF" cx="22" cy="22" r="22"/><path d="M18.805 9.282a1.116 1.116 0 00-1.108 1.118l.016 5.852c0 .615-.494 1.115-1.107 1.119l-6.196.017a1.116 1.116 0 00-1.108 1.119v.541a1.117 1.117 0 001.115 1.112l9.02-.025a1.117 1.117 0 001.11-1.12l-.026-8.623a1.117 1.117 0 00-1.115-1.112l-.6.002z" fill="#E43439"/><path d="M25.062 9.263c.613 0 1.11.497 1.115 1.112l.017 5.85a1.116 1.116 0 001.114 1.112l6.196-.017c.613 0 1.111.497 1.115 1.112v.541c0 .616-.495 1.116-1.109 1.12l-9.02.026c-.614 0-1.112-.497-1.115-1.112l-.025-8.623c0-.616.495-1.116 1.108-1.12h.604z" fill="#0079BB"/><path d="M18.875 33.645c-.613 0-1.11-.498-1.114-1.113l-.018-5.91a1.116 1.116 0 00-1.114-1.111l-6.195.018c-.613 0-1.111-.497-1.115-1.112v-.482c0-.616.495-1.116 1.108-1.12l9.021-.025c.613 0 1.111.497 1.115 1.112l.024 8.622c0 .616-.495 1.116-1.108 1.12h-.604z" fill="#F08F00"/><path d="M24.15 35.062a1.082 1.082 0 01.007-1.554l4.342-4.193a1.063 1.063 0 00-.005-1.543l-4.365-4.166a1.062 1.062 0 01-.004-1.542l.358-.348a1.179 1.179 0 011.61-.008l6.393 6.055a1.057 1.057 0 01.007 1.54l-6.364 6.145a1.152 1.152 0 01-1.594-.007l-.385-.38z" fill="#54AB42"/></g><g filter="url(#c)" transform="translate(463 311)" fill-rule="nonzero"><circle fill="#FFF" cx="22" cy="22" r="22"/><path d="M18.805 9.282a1.116 1.116 0 00-1.108 1.118l.016 5.852c0 .615-.494 1.115-1.107 1.119l-6.196.017a1.116 1.116 0 00-1.108 1.119v.541a1.117 1.117 0 001.115 1.112l9.02-.025a1.117 1.117 0 001.11-1.12l-.026-8.623a1.117 1.117 0 00-1.115-1.112l-.6.002z" fill="#E43439"/><path d="M25.062 9.263c.613 0 1.11.497 1.115 1.112l.017 5.85a1.116 1.116 0 001.114 1.112l6.196-.017c.613 0 1.111.497 1.115 1.112v.541c0 .616-.495 1.116-1.109 1.12l-9.02.026c-.614 0-1.112-.497-1.115-1.112l-.025-8.623c0-.616.495-1.116 1.108-1.12h.604z" fill="#0079BB"/><path d="M18.875 33.645c-.613 0-1.11-.498-1.114-1.113l-.018-5.91a1.116 1.116 0 00-1.114-1.111l-6.195.018c-.613 0-1.111-.497-1.115-1.112v-.482c0-.616.495-1.116 1.108-1.12l9.021-.025c.613 0 1.111.497 1.115 1.112l.024 8.622c0 .616-.495 1.116-1.108 1.12h-.604z" fill="#F08F00"/><path d="M24.15 35.062a1.082 1.082 0 01.007-1.554l4.342-4.193a1.063 1.063 0 00-.005-1.543l-4.365-4.166a1.062 1.062 0 01-.004-1.542l.358-.348a1.179 1.179 0 011.61-.008l6.393 6.055a1.057 1.057 0 01.007 1.54l-6.364 6.145a1.152 1.152 0 01-1.594-.007l-.385-.38z" fill="#54AB42"/></g><g filter="url(#d)" transform="translate(540 369)" fill-rule="nonzero"><circle fill="#FFF" cx="22" cy="22" r="22"/><path d="M18.805 9.282a1.116 1.116 0 00-1.108 1.118l.016 5.852c0 .615-.494 1.115-1.107 1.119l-6.196.017a1.116 1.116 0 00-1.108 1.119v.541a1.117 1.117 0 001.115 1.112l9.02-.025a1.117 1.117 0 001.11-1.12l-.026-8.623a1.117 1.117 0 00-1.115-1.112l-.6.002z" fill="#E43439"/><path d="M25.062 9.263c.613 0 1.11.497 1.115 1.112l.017 5.85a1.116 1.116 0 001.114 1.112l6.196-.017c.613 0 1.111.497 1.115 1.112v.541c0 .616-.495 1.116-1.109 1.12l-9.02.026c-.614 0-1.112-.497-1.115-1.112l-.025-8.623c0-.616.495-1.116 1.108-1.12h.604z" fill="#0079BB"/><path d="M18.875 33.645c-.613 0-1.11-.498-1.114-1.113l-.018-5.91a1.116 1.116 0 00-1.114-1.111l-6.195.018c-.613 0-1.111-.497-1.115-1.112v-.482c0-.616.495-1.116 1.108-1.12l9.021-.025c.613 0 1.111.497 1.115 1.112l.024 8.622c0 .616-.495 1.116-1.108 1.12h-.604z" fill="#F08F00"/><path d="M24.15 35.062a1.082 1.082 0 01.007-1.554l4.342-4.193a1.063 1.063 0 00-.005-1.543l-4.365-4.166a1.062 1.062 0 01-.004-1.542l.358-.348a1.179 1.179 0 011.61-.008l6.393 6.055a1.057 1.057 0 01.007 1.54l-6.364 6.145a1.152 1.152 0 01-1.594-.007l-.385-.38z" fill="#54AB42"/></g></g></svg>